<svg width="202" height="101" viewBox="0 0 202 101" fill="none" xmlns="http://www.w3.org/2000/svg">
<path d="M29.4105 58.7767C32.23 60.7947 33.6444 63.6632 33.6444 67.3912C33.6444 69.0966 33.2474 70.7009 32.449 72.1995C31.6552 73.6981 30.5648 75.0174 29.1778 76.1574C27.7908 77.2928 26.1757 78.1846 24.3279 78.8327C22.4802 79.4809 20.5001 79.8027 18.3968 79.8027C16.8045 79.8027 15.2533 79.5958 13.7386 79.1821C12.2239 78.7684 10.8278 78.1984 9.5412 77.4767C8.25916 76.7504 7.14137 75.8862 6.19239 74.8749C5.24341 73.8682 4.53624 72.7419 4.07544 71.5008C5.2571 70.9308 6.56651 70.2964 8.00367 69.6023C9.44083 68.9036 10.6955 68.2692 11.7768 67.6992C12.2376 68.4761 12.9539 69.1886 13.9302 69.8321C14.9066 70.4803 16.2434 70.8021 17.936 70.8021C19.6789 70.8021 20.9655 70.3883 21.7867 69.5609C22.6079 68.7335 23.0185 67.9566 23.0185 67.2349C23.0185 66.7155 22.7357 66.2374 22.1699 65.8007C21.6042 65.3594 20.9655 65.01 20.2446 64.7526C19.2181 64.3389 18.3694 64.1182 17.7033 64.0907C17.0372 64.0677 16.2662 63.9252 15.3948 63.6632C12.6208 62.992 10.5039 62.1002 9.0439 60.9878C7.57937 59.8754 6.51176 58.7491 5.84565 57.6137C5.17954 56.4737 4.80542 55.3888 4.72786 54.3545C4.65486 53.3203 4.6138 52.4928 4.6138 51.8722C4.6138 50.2174 4.97423 48.6407 5.69053 47.1421C6.41139 45.6389 7.39687 44.3334 8.65609 43.221C9.91532 42.1085 11.3753 41.2167 13.0451 40.5456C14.715 39.8745 16.4989 39.5389 18.3968 39.5389C19.9891 39.5389 21.5038 39.7687 22.941 40.233C24.3781 40.7019 25.6875 41.3455 26.8692 42.1729C28.0463 43.0003 29.0637 43.9841 29.9078 45.1241C30.7564 46.2595 31.386 47.5282 31.7966 48.9257L23.5569 51.7159C23.2467 50.7874 22.6216 50.0381 21.6681 49.4681C20.7191 48.8981 19.7062 48.6131 18.6295 48.6131C17.5482 48.6131 16.6768 48.9762 16.0107 49.6979C15.3446 50.4242 15.0115 51.1505 15.0115 51.8722C15.0115 52.7502 15.3309 53.4352 15.9696 53.927C16.6129 54.4189 17.3201 54.7683 18.0911 54.9751C18.6523 55.0808 19.2044 55.1682 19.7427 55.2463C20.2857 55.3245 20.8103 55.4164 21.3213 55.5175C23.1189 55.9313 24.6747 56.4001 25.9841 56.915C27.289 57.4344 28.4341 58.055 29.4105 58.7767ZM37.9558 37.2083C37.9558 34.5191 38.3528 32.2069 39.1603 30.267C39.9587 28.3272 41.0355 26.7229 42.3723 25.4542C43.7182 24.19 45.2694 23.2568 47.0305 22.6639C48.787 22.0663 50.6348 21.7721 52.5875 21.7721C53.7646 21.7721 54.9462 21.8732 56.1279 22.0801C57.3096 22.2869 58.4912 22.5995 59.6683 23.0132L58.8243 30.8463L56.283 30.4601C55.8724 30.4096 55.4983 30.3682 55.1652 30.3452C54.8322 30.3176 54.5128 30.3038 54.2026 30.3038C52.2544 30.3038 50.8264 30.7819 49.9276 31.738C49.0334 32.6988 48.5817 34.0824 48.5817 35.889V40.4675H58.8243V50.0105H48.5817V78.9477H37.9558V50.0105H32.9509V44.3472L37.9558 40.4675V37.2083ZM76.9188 48.9257C75.6367 48.9257 74.4277 49.2199 73.3008 49.8175C72.1693 50.4104 71.1838 51.2149 70.3352 52.2216C69.4866 53.2283 68.8205 54.4051 68.3323 55.752C67.8442 57.0943 67.6024 58.5423 67.6024 60.096C67.6024 61.6497 67.8442 63.0564 68.3323 64.3251C68.8205 65.5938 69.4866 66.6787 70.3352 67.5843C71.1838 68.4898 72.1693 69.1978 73.3008 69.7172C74.4277 70.2321 75.6367 70.4941 76.9188 70.4941C78.5111 70.4941 80.0623 70.1171 81.577 69.3679C83.0917 68.6186 84.3874 67.5705 85.4641 66.2236L92.0112 72.7419C90.2136 74.9162 88.0054 76.6492 85.3866 77.941C82.7723 79.2327 79.9482 79.8808 76.9188 79.8808C74.1448 79.8808 71.5534 79.3476 69.1399 78.2903C66.7264 77.2284 64.6231 75.7804 62.8255 73.9463C61.0325 72.1076 59.6045 69.9608 58.5551 67.5061C57.5012 65.0468 56.9765 62.422 56.9765 59.6317C56.9765 56.8368 57.5012 54.212 58.5551 51.7573C59.6045 49.298 61.0325 47.1513 62.8255 45.3171C64.6231 43.4784 66.7264 42.0304 69.1399 40.9731C71.5534 39.9112 74.1448 39.3826 76.9188 39.3826C80.0486 39.3826 82.9503 40.0537 85.6193 41.4006C88.2883 42.7429 90.5467 44.5816 92.3945 46.9076L85.0034 52.6491C83.516 51.2517 82.1655 50.2817 80.9611 49.7393C79.7566 49.1969 78.4061 48.9257 76.9188 48.9257Z" fill="#1778BD"/>
<path d="M98.7906 47.1418C98.7495 47.2153 98.7085 47.2705 98.6583 47.3026C98.6126 47.3348 98.5533 47.3532 98.4849 47.3532C98.4119 47.3532 98.3343 47.3256 98.2476 47.2705C98.161 47.2153 98.0606 47.1555 97.942 47.0912C97.8233 47.0222 97.6865 46.9625 97.5268 46.9073C97.3717 46.8522 97.18 46.8292 96.9656 46.8292C96.7694 46.8292 96.6006 46.8522 96.4546 46.8981C96.3086 46.9441 96.1854 47.013 96.0896 47.0958C95.9892 47.1785 95.9117 47.2797 95.8661 47.3992C95.8159 47.5141 95.7931 47.6474 95.7931 47.7853C95.7931 47.9646 95.8432 48.1163 95.9391 48.2358C96.0394 48.3553 96.1717 48.4565 96.336 48.5392C96.5002 48.6219 96.6827 48.7001 96.8926 48.7644C97.1025 48.8334 97.3169 48.9023 97.5359 48.9805C97.7549 49.054 97.9693 49.1414 98.1746 49.2425C98.3845 49.3436 98.5716 49.4677 98.7358 49.6194C98.9001 49.7757 99.0324 49.9642 99.1282 50.1849C99.2286 50.4055 99.2787 50.6721 99.2787 50.9893C99.2787 51.3341 99.2194 51.6559 99.1054 51.9547C98.9867 52.258 98.8179 52.5201 98.5944 52.7407C98.3663 52.966 98.0925 53.1406 97.7686 53.2693C97.4446 53.3981 97.0751 53.4624 96.6599 53.4624C96.4181 53.4624 96.1809 53.4348 95.9482 53.3889C95.7155 53.3429 95.4919 53.2739 95.2775 53.1866C95.0631 53.0993 94.8623 52.9935 94.6753 52.8694C94.4882 52.7499 94.3194 52.612 94.1734 52.4603L94.584 51.78C94.6205 51.7294 94.6661 51.688 94.7209 51.6559C94.7756 51.6237 94.835 51.6053 94.8988 51.6053C94.9855 51.6053 95.0813 51.6421 95.1817 51.7156C95.2821 51.7846 95.4007 51.8673 95.5421 51.9547C95.679 52.042 95.8433 52.1201 96.0303 52.1937C96.2174 52.2672 96.4409 52.304 96.701 52.304C97.0979 52.304 97.4082 52.2075 97.6272 52.0144C97.8461 51.8213 97.9557 51.5501 97.9557 51.1916C97.9557 50.9893 97.91 50.8284 97.8096 50.6997C97.7093 50.5756 97.577 50.4653 97.4127 50.3825C97.253 50.2952 97.066 50.2216 96.8561 50.1619C96.6462 50.1021 96.4364 50.0378 96.2219 49.9688C96.0029 49.8953 95.7931 49.8125 95.5832 49.716C95.3733 49.6149 95.1863 49.4861 95.0266 49.3298C94.8623 49.1736 94.73 48.9713 94.6297 48.7369C94.5338 48.4978 94.4837 48.2082 94.4837 47.8589C94.4837 47.583 94.5384 47.3118 94.6479 47.0498C94.7574 46.7832 94.9171 46.5534 95.1224 46.3465C95.3323 46.1442 95.5878 45.9787 95.898 45.8592C96.2037 45.7351 96.555 45.6708 96.9519 45.6708C97.3945 45.6708 97.8051 45.7443 98.1838 45.8822C98.5579 46.0247 98.8773 46.2224 99.1419 46.4752L98.7906 47.1418ZM105.502 47.9692V53.3751H104.713C104.539 53.3751 104.434 53.2969 104.389 53.1406L104.297 52.7085C104.078 52.9338 103.837 53.1131 103.572 53.251C103.307 53.3935 102.997 53.4624 102.641 53.4624C102.349 53.4624 102.089 53.4118 101.866 53.3107C101.642 53.2096 101.45 53.0717 101.3 52.8878C101.145 52.7039 101.031 52.4879 100.953 52.2351C100.876 51.9822 100.835 51.7064 100.835 51.4076V47.9692H102.121V51.4076C102.121 51.7386 102.199 51.9914 102.349 52.1707C102.504 52.3546 102.728 52.4465 103.029 52.4465C103.253 52.4465 103.462 52.3914 103.659 52.2948C103.85 52.1937 104.037 52.0558 104.211 51.8811V47.9692H105.502ZM108.746 51.9776C108.892 52.1523 109.051 52.281 109.225 52.3546C109.398 52.4281 109.585 52.4649 109.786 52.4649C109.982 52.4649 110.156 52.4281 110.311 52.3546C110.47 52.281 110.603 52.1707 110.712 52.019C110.822 51.8673 110.904 51.6742 110.963 51.4444C111.022 51.2146 111.054 50.9433 111.054 50.6308C111.054 50.3136 111.032 50.047 110.977 49.8263C110.927 49.6057 110.854 49.431 110.762 49.2931C110.667 49.1552 110.552 49.054 110.42 48.9943C110.288 48.9299 110.133 48.8977 109.964 48.8977C109.695 48.8977 109.467 48.9529 109.28 49.0678C109.092 49.1828 108.915 49.3436 108.746 49.5505V51.9776ZM108.677 48.7093C108.896 48.461 109.147 48.2588 109.426 48.1025C109.704 47.9462 110.032 47.8726 110.406 47.8726C110.698 47.8726 110.968 47.9324 111.209 48.0565C111.451 48.176 111.661 48.3553 111.834 48.5898C112.012 48.8242 112.145 49.1092 112.241 49.454C112.336 49.7941 112.387 50.1895 112.387 50.6308C112.387 51.0353 112.332 51.4122 112.222 51.7524C112.113 52.0971 111.962 52.3959 111.761 52.6488C111.561 52.9016 111.319 53.0993 111.036 53.2418C110.753 53.3843 110.434 53.4578 110.083 53.4578C109.781 53.4578 109.526 53.4073 109.316 53.3153C109.102 53.2234 108.915 53.0947 108.746 52.9292V55.1403H107.459V47.9692H108.244C108.413 47.9692 108.522 48.0473 108.572 48.2082L108.677 48.7093ZM117.519 50.0516C117.519 49.8815 117.496 49.7252 117.451 49.5735C117.405 49.4264 117.332 49.2931 117.241 49.1827C117.145 49.0724 117.026 48.9805 116.88 48.9161C116.739 48.8518 116.57 48.8196 116.379 48.8196C116.005 48.8196 115.713 48.9253 115.498 49.1414C115.284 49.3528 115.147 49.6608 115.087 50.0516H117.519ZM115.065 50.8376C115.083 51.1134 115.133 51.3525 115.211 51.5547C115.284 51.757 115.384 51.9225 115.512 52.0558C115.635 52.1891 115.786 52.2856 115.959 52.35C116.132 52.4143 116.319 52.4511 116.529 52.4511C116.739 52.4511 116.917 52.4235 117.072 52.3776C117.223 52.327 117.355 52.2718 117.469 52.2121C117.579 52.1523 117.679 52.0972 117.766 52.0512C117.848 52.0006 117.93 51.9776 118.012 51.9776C118.117 51.9776 118.199 52.0144 118.249 52.0971L118.623 52.5706C118.477 52.7407 118.318 52.8786 118.14 52.9935C117.966 53.1085 117.779 53.2004 117.588 53.2693C117.391 53.3383 117.195 53.3843 116.999 53.4118C116.798 53.444 116.602 53.4578 116.415 53.4578C116.041 53.4578 115.694 53.3935 115.375 53.2693C115.056 53.1452 114.777 52.9614 114.54 52.7131C114.303 52.4695 114.12 52.1707 113.983 51.8076C113.847 51.449 113.778 51.0307 113.778 50.5572C113.778 50.1895 113.837 49.8401 113.956 49.5183C114.075 49.1919 114.243 48.9069 114.467 48.6679C114.686 48.4289 114.955 48.2358 115.275 48.0979C115.594 47.9554 115.95 47.8864 116.351 47.8864C116.689 47.8864 116.999 47.9416 117.287 48.0473C117.569 48.1576 117.816 48.3185 118.021 48.5254C118.226 48.7369 118.391 48.9897 118.505 49.2931C118.623 49.6011 118.678 49.9458 118.678 50.3366C118.678 50.5342 118.66 50.6629 118.619 50.7319C118.573 50.8008 118.496 50.8376 118.377 50.8376H115.065ZM121.543 48.9069C121.712 48.5852 121.913 48.3323 122.141 48.1485C122.369 47.96 122.643 47.8726 122.953 47.8726C123.199 47.8726 123.4 47.9232 123.551 48.0335L123.464 49.0081C123.45 49.0724 123.423 49.1138 123.391 49.1414C123.359 49.169 123.313 49.1827 123.259 49.1827C123.204 49.1827 123.126 49.1736 123.026 49.1552C122.921 49.1368 122.821 49.1276 122.725 49.1276C122.584 49.1276 122.456 49.1506 122.342 49.1919C122.232 49.2333 122.132 49.2931 122.045 49.3758C121.954 49.454 121.876 49.5505 121.808 49.6608C121.744 49.7757 121.676 49.9045 121.616 50.047V53.3751H120.33V47.9692H121.087C121.219 47.9692 121.311 47.9922 121.361 48.0427C121.416 48.0887 121.452 48.176 121.466 48.2956L121.543 48.9069ZM126.243 47.9692V53.3751H124.951V47.9692H126.243ZM126.42 46.3971C126.42 46.5074 126.398 46.6131 126.352 46.7096C126.306 46.8108 126.247 46.8935 126.174 46.9717C126.101 47.0452 126.01 47.1004 125.91 47.1463C125.809 47.1877 125.7 47.2107 125.586 47.2107C125.476 47.2107 125.371 47.1877 125.271 47.1463C125.17 47.1004 125.084 47.0452 125.011 46.9717C124.938 46.8935 124.883 46.8108 124.837 46.7096C124.796 46.6131 124.773 46.5074 124.773 46.3971C124.773 46.2775 124.796 46.1718 124.837 46.0661C124.883 45.965 124.938 45.8776 125.011 45.8041C125.084 45.7305 125.17 45.6708 125.271 45.6294C125.371 45.5834 125.476 45.5604 125.586 45.5604C125.7 45.5604 125.809 45.5834 125.91 45.6294C126.01 45.6708 126.101 45.7305 126.174 45.8041C126.247 45.8776 126.306 45.965 126.352 46.0661C126.398 46.1718 126.42 46.2775 126.42 46.3971ZM129.45 48.6357C129.555 48.5254 129.673 48.4243 129.792 48.3323C129.911 48.2358 130.038 48.1577 130.171 48.0933C130.308 48.0289 130.449 47.9784 130.604 47.9416C130.755 47.9048 130.924 47.8864 131.102 47.8864C131.393 47.8864 131.654 47.937 131.882 48.0335C132.105 48.1347 132.297 48.2772 132.447 48.4564C132.598 48.6403 132.712 48.8518 132.794 49.1046C132.872 49.3574 132.908 49.6332 132.908 49.9366V53.3751H131.622V49.9366C131.622 49.6057 131.544 49.3482 131.394 49.169C131.248 48.9897 131.019 48.8977 130.714 48.8977C130.49 48.8977 130.28 48.9483 130.084 49.0494C129.892 49.1506 129.705 49.2931 129.532 49.4678V53.3751H128.245V47.9692H129.03C129.199 47.9692 129.308 48.0473 129.359 48.2082L129.45 48.6357ZM136.526 53.4624C136.061 53.4624 135.705 53.3291 135.454 53.0625C135.208 52.7959 135.08 52.4327 135.08 51.9638V48.9437H134.532C134.464 48.9437 134.405 48.9207 134.355 48.8748C134.309 48.8334 134.281 48.7644 134.281 48.6725V48.1531L135.144 48.0105L135.413 46.5396C135.431 46.466 135.468 46.4109 135.513 46.3741C135.564 46.3373 135.627 46.3143 135.7 46.3143H136.371V48.0197H137.799V48.9437H136.371V51.8765C136.371 52.042 136.412 52.1753 136.494 52.2718C136.576 52.3638 136.686 52.4143 136.827 52.4143C136.909 52.4143 136.978 52.4005 137.033 52.3822C137.087 52.3638 137.133 52.3454 137.174 52.3224C137.211 52.304 137.247 52.281 137.279 52.2626C137.311 52.2442 137.343 52.2351 137.37 52.2351C137.411 52.2351 137.443 52.2442 137.466 52.2626C137.489 52.281 137.516 52.3132 137.544 52.35L137.931 52.9797C137.744 53.1406 137.525 53.2602 137.284 53.3383C137.042 53.421 136.786 53.4624 136.526 53.4624ZM142.717 50.0516C142.717 49.8815 142.695 49.7252 142.649 49.5735C142.599 49.4264 142.53 49.2931 142.435 49.1827C142.343 49.0724 142.225 48.9805 142.079 48.9161C141.933 48.8518 141.764 48.8196 141.572 48.8196C141.203 48.8196 140.911 48.9253 140.696 49.1414C140.482 49.3528 140.345 49.6608 140.286 50.0516H142.717ZM140.258 50.8376C140.281 51.1134 140.327 51.3525 140.404 51.5547C140.482 51.757 140.582 51.9225 140.71 52.0558C140.833 52.1891 140.984 52.2856 141.157 52.35C141.326 52.4143 141.517 52.4511 141.727 52.4511C141.933 52.4511 142.115 52.4235 142.266 52.3776C142.416 52.327 142.549 52.2718 142.663 52.2121C142.777 52.1523 142.877 52.0972 142.959 52.0512C143.046 52.0006 143.128 51.9776 143.21 51.9776C143.315 51.9776 143.397 52.0144 143.447 52.0971L143.817 52.5706C143.675 52.7407 143.516 52.8786 143.338 52.9935C143.16 53.1085 142.977 53.2004 142.781 53.2693C142.59 53.3383 142.393 53.3843 142.193 53.4118C141.992 53.444 141.8 53.4578 141.609 53.4578C141.239 53.4578 140.892 53.3935 140.573 53.2693C140.254 53.1452 139.975 52.9614 139.738 52.7131C139.501 52.4695 139.314 52.1707 139.177 51.8076C139.045 51.449 138.976 51.0307 138.976 50.5572C138.976 50.1895 139.036 49.8401 139.154 49.5183C139.273 49.1919 139.442 48.9069 139.661 48.6679C139.884 48.4289 140.153 48.2358 140.473 48.0979C140.792 47.9554 141.148 47.8864 141.549 47.8864C141.887 47.8864 142.197 47.9416 142.485 48.0473C142.768 48.1576 143.014 48.3185 143.219 48.5254C143.425 48.7369 143.584 48.9897 143.703 49.2931C143.817 49.6011 143.876 49.9458 143.876 50.3366C143.876 50.5342 143.853 50.6629 143.812 50.7319C143.771 50.8008 143.694 50.8376 143.575 50.8376H140.258ZM146.732 48.6357C146.842 48.5254 146.956 48.4243 147.074 48.3323C147.193 48.2358 147.321 48.1577 147.458 48.0933C147.59 48.0289 147.731 47.9784 147.887 47.9416C148.037 47.9048 148.206 47.8864 148.384 47.8864C148.68 47.8864 148.936 47.937 149.164 48.0335C149.388 48.1347 149.579 48.2772 149.73 48.4564C149.88 48.6403 149.999 48.8518 150.077 49.1046C150.154 49.3574 150.191 49.6332 150.191 49.9366V53.3751H148.904V49.9366C148.904 49.6057 148.826 49.3482 148.68 49.169C148.53 48.9897 148.302 48.8977 147.996 48.8977C147.773 48.8977 147.563 48.9483 147.366 49.0494C147.175 49.1506 146.988 49.2931 146.814 49.4678V53.3751H145.528V47.9692H146.313C146.481 47.9692 146.591 48.0473 146.641 48.2082L146.732 48.6357ZM155.46 49.3528C155.314 49.1736 155.155 49.0448 154.981 48.9713C154.808 48.8977 154.625 48.861 154.424 48.861C154.228 48.861 154.055 48.8977 153.9 48.9713C153.74 49.0448 153.608 49.1552 153.498 49.3069C153.384 49.454 153.298 49.6424 153.238 49.8769C153.184 50.1067 153.152 50.3779 153.152 50.6905C153.152 51.0077 153.179 51.2743 153.229 51.4904C153.279 51.711 153.352 51.8903 153.444 52.0282C153.539 52.1707 153.653 52.2672 153.79 52.3316C153.923 52.3914 154.078 52.4235 154.242 52.4235C154.511 52.4235 154.739 52.3684 154.926 52.2534C155.113 52.1431 155.291 51.9822 155.46 51.7754V49.3528ZM156.747 45.5466V53.3751H155.957C155.789 53.3751 155.679 53.2969 155.638 53.1406L155.529 52.6166C155.31 52.8694 155.063 53.0717 154.785 53.2234C154.502 53.3797 154.178 53.4578 153.804 53.4578C153.512 53.4578 153.243 53.3935 153.001 53.2739C152.759 53.1498 152.549 52.9705 152.371 52.7361C152.198 52.5017 152.061 52.2167 151.965 51.8719C151.87 51.5271 151.819 51.1318 151.819 50.6905C151.819 50.2906 151.874 49.9182 151.984 49.5735C152.089 49.2287 152.244 48.9299 152.449 48.6771C152.65 48.4243 152.892 48.2266 153.174 48.0841C153.453 47.9416 153.772 47.8726 154.123 47.8726C154.42 47.8726 154.675 47.9186 154.89 48.0105C155.1 48.1071 155.291 48.2358 155.46 48.3967V45.5466H156.747ZM162.153 50.0516C162.153 49.8815 162.135 49.7252 162.085 49.5735C162.039 49.4264 161.966 49.2931 161.875 49.1827C161.779 49.0724 161.66 48.9805 161.519 48.9161C161.373 48.8518 161.204 48.8196 161.013 48.8196C160.639 48.8196 160.347 48.9253 160.132 49.1414C159.918 49.3528 159.781 49.6608 159.721 50.0516H162.153ZM159.699 50.8376C159.717 51.1134 159.767 51.3525 159.845 51.5547C159.918 51.757 160.023 51.9225 160.146 52.0558C160.274 52.1891 160.42 52.2856 160.593 52.35C160.766 52.4143 160.953 52.4511 161.163 52.4511C161.373 52.4511 161.556 52.4235 161.706 52.3776C161.857 52.327 161.989 52.2718 162.103 52.2121C162.213 52.1523 162.313 52.0972 162.4 52.0512C162.486 52.0006 162.564 51.9776 162.646 51.9776C162.755 51.9776 162.833 52.0144 162.888 52.0971L163.257 52.5706C163.116 52.7407 162.952 52.8786 162.778 52.9935C162.6 53.1085 162.413 53.2004 162.222 53.2693C162.03 53.3383 161.834 53.3843 161.633 53.4118C161.432 53.444 161.236 53.4578 161.049 53.4578C160.675 53.4578 160.328 53.3935 160.009 53.2693C159.69 53.1452 159.411 52.9614 159.174 52.7131C158.937 52.4695 158.754 52.1707 158.617 51.8076C158.48 51.449 158.412 51.0307 158.412 50.5572C158.412 50.1895 158.471 49.8401 158.59 49.5183C158.709 49.1919 158.882 48.9069 159.101 48.6679C159.32 48.4289 159.589 48.2358 159.909 48.0979C160.228 47.9554 160.588 47.8864 160.985 47.8864C161.323 47.8864 161.633 47.9416 161.921 48.0473C162.208 48.1576 162.45 48.3185 162.655 48.5254C162.86 48.7369 163.025 48.9897 163.139 49.2931C163.257 49.6011 163.312 49.9458 163.312 50.3366C163.312 50.5342 163.294 50.6629 163.253 50.7319C163.212 50.8008 163.13 50.8376 163.011 50.8376H159.699ZM166.168 48.6357C166.278 48.5254 166.392 48.4243 166.51 48.3323C166.633 48.2358 166.761 48.1577 166.894 48.0933C167.026 48.0289 167.172 47.9784 167.322 47.9416C167.478 47.9048 167.642 47.8864 167.824 47.8864C168.116 47.8864 168.376 47.937 168.6 48.0335C168.828 48.1347 169.02 48.2772 169.17 48.4564C169.321 48.6403 169.435 48.8518 169.512 49.1046C169.59 49.3574 169.631 49.6332 169.631 49.9366V53.3751H168.34V49.9366C168.34 49.6057 168.267 49.3482 168.116 49.169C167.966 48.9897 167.738 48.8977 167.432 48.8977C167.208 48.8977 167.003 48.9483 166.807 49.0494C166.611 49.1506 166.428 49.2931 166.255 49.4678V53.3751H164.964V47.9692H165.753C165.917 47.9692 166.027 48.0473 166.081 48.2082L166.168 48.6357ZM175.37 49.1138C175.334 49.1644 175.298 49.2011 175.261 49.2287C175.225 49.2563 175.17 49.2701 175.101 49.2701C175.033 49.2701 174.969 49.2517 174.905 49.2103C174.846 49.169 174.768 49.123 174.682 49.0724C174.595 49.0219 174.495 48.9759 174.371 48.9345C174.253 48.8977 174.102 48.8748 173.924 48.8748C173.701 48.8748 173.5 48.9161 173.331 48.9989C173.162 49.0816 173.021 49.2011 172.907 49.3574C172.793 49.5091 172.706 49.6976 172.651 49.9183C172.597 50.1343 172.569 50.3871 172.569 50.6629C172.569 50.9525 172.601 51.21 172.66 51.4306C172.724 51.6559 172.811 51.8443 172.925 51.996C173.039 52.1523 173.176 52.2672 173.34 52.3454C173.504 52.4235 173.692 52.4649 173.892 52.4649C174.098 52.4649 174.266 52.4373 174.394 52.3868C174.522 52.3362 174.627 52.281 174.714 52.2213C174.8 52.1569 174.878 52.1018 174.942 52.0512C175.006 52.0006 175.079 51.9776 175.156 51.9776C175.261 51.9776 175.339 52.0144 175.393 52.0971L175.763 52.5706C175.621 52.7407 175.466 52.8786 175.298 52.9935C175.133 53.1085 174.96 53.2004 174.782 53.2693C174.599 53.3383 174.417 53.3843 174.225 53.4118C174.038 53.444 173.847 53.4578 173.66 53.4578C173.331 53.4578 173.016 53.3935 172.724 53.2693C172.432 53.1452 172.177 52.9614 171.958 52.7223C171.739 52.4833 171.565 52.1937 171.442 51.8443C171.315 51.4996 171.251 51.1042 171.251 50.6629C171.251 50.2676 171.305 49.8953 171.419 49.5597C171.534 49.2195 171.698 48.9253 171.917 48.6771C172.136 48.4289 172.409 48.2358 172.729 48.0979C173.053 47.9554 173.427 47.8864 173.847 47.8864C174.248 47.8864 174.599 47.9508 174.901 48.0795C175.202 48.2128 175.471 48.3967 175.713 48.6403L175.37 49.1138ZM178.587 47.9692V53.3751H177.291V47.9692H178.587ZM178.765 46.3971C178.765 46.5074 178.742 46.6131 178.697 46.7096C178.651 46.8108 178.592 46.8935 178.519 46.9717C178.441 47.0452 178.354 47.1004 178.254 47.1463C178.154 47.1877 178.044 47.2107 177.93 47.2107C177.821 47.2107 177.716 47.1877 177.615 47.1463C177.515 47.1004 177.428 47.0452 177.355 46.9717C177.282 46.8935 177.227 46.8108 177.182 46.7096C177.136 46.6131 177.118 46.5074 177.118 46.3971C177.118 46.2775 177.136 46.1718 177.182 46.0661C177.227 45.965 177.282 45.8776 177.355 45.8041C177.428 45.7305 177.515 45.6708 177.615 45.6294C177.716 45.5834 177.821 45.5604 177.93 45.5604C178.044 45.5604 178.154 45.5834 178.254 45.6294C178.354 45.6708 178.441 45.7305 178.519 45.8041C178.592 45.8776 178.651 45.965 178.697 46.0661C178.742 46.1718 178.765 46.2775 178.765 46.3971ZM183.414 51.0675C183.044 51.0858 182.73 51.118 182.479 51.164C182.223 51.2146 182.018 51.2743 181.867 51.3479C181.712 51.4214 181.603 51.5088 181.539 51.6053C181.47 51.7064 181.438 51.8121 181.438 51.9271C181.438 52.1569 181.507 52.3178 181.639 52.4189C181.772 52.5155 181.949 52.566 182.164 52.566C182.429 52.566 182.657 52.5155 182.853 52.4189C183.044 52.3224 183.232 52.1753 183.414 51.9822V51.0675ZM180.462 48.7231C181.078 48.1531 181.817 47.8726 182.684 47.8726C182.999 47.8726 183.277 47.9232 183.524 48.0243C183.774 48.1301 183.98 48.2726 184.153 48.4564C184.322 48.6403 184.454 48.861 184.541 49.1184C184.632 49.3758 184.673 49.6562 184.673 49.9642V53.3751H184.089C183.966 53.3751 183.875 53.3567 183.806 53.3199C183.743 53.2831 183.688 53.2096 183.651 53.0993L183.537 52.7085C183.4 52.8326 183.268 52.9384 183.14 53.0303C183.013 53.1222 182.876 53.205 182.739 53.2648C182.597 53.3291 182.451 53.3751 182.292 53.4118C182.132 53.444 181.959 53.4624 181.767 53.4624C181.539 53.4624 181.334 53.4302 181.142 53.3705C180.95 53.3061 180.786 53.2142 180.645 53.0947C180.508 52.9706 180.398 52.8189 180.321 52.635C180.243 52.4511 180.207 52.2397 180.207 51.996C180.207 51.8581 180.229 51.7248 180.275 51.5869C180.321 51.4536 180.394 51.3249 180.499 51.2008C180.599 51.0766 180.731 50.9617 180.896 50.8514C181.06 50.7457 181.261 50.6491 181.498 50.5664C181.735 50.4883 182.013 50.4193 182.328 50.3687C182.648 50.3182 183.008 50.2906 183.414 50.2768V49.9642C183.414 49.6011 183.341 49.3299 183.186 49.1598C183.035 48.9851 182.812 48.8977 182.524 48.8977C182.314 48.8977 182.141 48.9207 182.004 48.9713C181.867 49.0219 181.744 49.077 181.644 49.1368C181.539 49.1965 181.443 49.2563 181.356 49.3023C181.274 49.3528 181.178 49.3758 181.074 49.3758C180.982 49.3758 180.905 49.3528 180.841 49.3069C180.782 49.2563 180.731 49.2057 180.69 49.1414L180.462 48.7231ZM96.1809 57.3835V59.636H99.0096V60.7714H96.1809V63.8743H94.7757V56.2527H99.5342V57.3835H96.1809ZM102.491 58.4684V63.8743H101.195V58.4684H102.491ZM102.664 56.8917C102.664 57.0066 102.641 57.1077 102.6 57.2089C102.555 57.3054 102.495 57.3927 102.418 57.4663C102.345 57.5398 102.253 57.5996 102.153 57.6409C102.053 57.6869 101.948 57.7099 101.829 57.7099C101.72 57.7099 101.615 57.6869 101.514 57.6409C101.419 57.5996 101.332 57.5398 101.259 57.4663C101.186 57.3927 101.127 57.3054 101.081 57.2089C101.04 57.1077 101.017 57.0066 101.017 56.8917C101.017 56.7767 101.04 56.6664 101.081 56.5653C101.127 56.4642 101.186 56.3768 101.259 56.3033C101.332 56.2297 101.419 56.17 101.514 56.124C101.615 56.0826 101.72 56.0596 101.829 56.0596C101.948 56.0596 102.053 56.0826 102.153 56.124C102.253 56.17 102.345 56.2297 102.418 56.3033C102.495 56.3768 102.555 56.4642 102.6 56.5653C102.641 56.6664 102.664 56.7767 102.664 56.8917ZM105.693 59.1303C105.803 59.0246 105.917 58.9189 106.036 58.8269C106.159 58.735 106.282 58.6569 106.419 58.5925C106.551 58.5235 106.693 58.473 106.848 58.4362C106.998 58.3994 107.167 58.3856 107.35 58.3856C107.642 58.3856 107.902 58.4316 108.125 58.5327C108.353 58.6339 108.54 58.7718 108.691 58.9556C108.846 59.1349 108.96 59.351 109.038 59.6038C109.115 59.852 109.152 60.1324 109.152 60.4312V63.8743H107.865V60.4312C107.865 60.1049 107.792 59.8474 107.642 59.6636C107.491 59.4843 107.263 59.3969 106.957 59.3969C106.734 59.3969 106.524 59.4475 106.332 59.5486C106.136 59.6498 105.954 59.7877 105.776 59.9624V63.8743H104.489V58.4684H105.278C105.443 58.4684 105.552 58.5465 105.607 58.7028L105.693 59.1303ZM113.888 61.5667C113.518 61.585 113.203 61.6172 112.948 61.6632C112.697 61.7092 112.491 61.7735 112.336 61.8471C112.186 61.9206 112.076 62.0034 112.008 62.1045C111.944 62.201 111.912 62.3113 111.912 62.4263C111.912 62.6515 111.98 62.817 112.113 62.9135C112.245 63.0147 112.418 63.0606 112.637 63.0606C112.902 63.0606 113.13 63.0147 113.322 62.9181C113.518 62.8216 113.705 62.6745 113.888 62.4768V61.5667ZM110.936 59.2223C111.552 58.6523 112.291 58.3672 113.158 58.3672C113.472 58.3672 113.751 58.4178 113.997 58.5235C114.243 58.6247 114.453 58.7718 114.622 58.9556C114.795 59.1395 114.923 59.3602 115.014 59.6176C115.101 59.875 115.147 60.1554 115.147 60.4588V63.8743H114.563C114.44 63.8743 114.344 63.8559 114.28 63.8191C114.211 63.7823 114.161 63.7088 114.125 63.5939L114.011 63.2031C113.874 63.3273 113.742 63.433 113.614 63.5295C113.482 63.6215 113.349 63.6996 113.208 63.764C113.071 63.8283 112.925 63.8743 112.765 63.9065C112.606 63.9432 112.432 63.957 112.241 63.957C112.012 63.957 111.803 63.9248 111.611 63.8651C111.424 63.8053 111.255 63.7134 111.118 63.5893C110.977 63.4652 110.872 63.3135 110.794 63.1296C110.717 62.9503 110.68 62.7343 110.68 62.4952C110.68 62.3573 110.703 62.2194 110.749 62.0861C110.79 61.9482 110.867 61.8195 110.968 61.7C111.073 61.5759 111.205 61.4609 111.369 61.3506C111.533 61.2403 111.734 61.1484 111.971 61.0656C112.209 60.9829 112.487 60.9185 112.802 60.8679C113.121 60.8174 113.481 60.7852 113.888 60.776V60.4588C113.888 60.0957 113.81 59.829 113.659 59.6544C113.504 59.4797 113.285 59.3969 112.998 59.3969C112.788 59.3969 112.615 59.4199 112.478 59.4705C112.341 59.5165 112.218 59.5716 112.113 59.636C112.008 59.6957 111.917 59.7509 111.83 59.8015C111.743 59.852 111.647 59.875 111.547 59.875C111.456 59.875 111.378 59.852 111.314 59.8015C111.255 59.7555 111.2 59.7003 111.164 59.636L110.936 59.2223ZM118.249 59.1303C118.354 59.0246 118.468 58.9189 118.591 58.8269C118.71 58.735 118.838 58.6569 118.97 58.5925C119.107 58.5235 119.248 58.473 119.399 58.4362C119.554 58.3994 119.723 58.3856 119.901 58.3856C120.193 58.3856 120.453 58.4316 120.681 58.5327C120.905 58.6339 121.096 58.7718 121.247 58.9556C121.397 59.1349 121.511 59.351 121.589 59.6038C121.671 59.852 121.708 60.1324 121.708 60.4312V63.8743H120.416V60.4312C120.416 60.1049 120.343 59.8474 120.193 59.6636C120.042 59.4843 119.814 59.3969 119.508 59.3969C119.289 59.3969 119.08 59.4475 118.883 59.5486C118.687 59.6498 118.505 59.7877 118.331 59.9624V63.8743H117.04V58.4684H117.829C117.998 58.4684 118.108 58.5465 118.158 58.7028L118.249 59.1303ZM127.447 59.613C127.411 59.659 127.374 59.7003 127.338 59.7279C127.301 59.7555 127.246 59.7693 127.178 59.7693C127.109 59.7693 127.046 59.7463 126.986 59.7095C126.922 59.6682 126.849 59.6222 126.758 59.5716C126.671 59.5211 126.571 59.4751 126.452 59.4337C126.329 59.3924 126.179 59.374 126.005 59.374C125.777 59.374 125.581 59.4153 125.408 59.4981C125.239 59.5808 125.097 59.7003 124.983 59.852C124.869 60.0083 124.787 60.1922 124.728 60.4128C124.673 60.6335 124.646 60.8817 124.646 61.1621C124.646 61.4471 124.678 61.7046 124.737 61.9298C124.801 62.1551 124.888 62.3435 125.002 62.4952C125.116 62.6469 125.257 62.7618 125.417 62.8446C125.581 62.9227 125.768 62.9641 125.973 62.9641C126.179 62.9641 126.343 62.9365 126.471 62.886C126.598 62.8354 126.703 62.7802 126.79 62.7159C126.877 62.6561 126.954 62.601 127.018 62.5504C127.082 62.4952 127.155 62.4722 127.237 62.4722C127.338 62.4722 127.42 62.5136 127.47 62.5918L127.839 63.0698C127.698 63.2353 127.543 63.3778 127.374 63.4927C127.21 63.6077 127.036 63.695 126.858 63.764C126.681 63.8329 126.493 63.8835 126.306 63.911C126.115 63.9386 125.923 63.9524 125.736 63.9524C125.408 63.9524 125.097 63.8881 124.805 63.764C124.509 63.6398 124.253 63.4606 124.034 63.2215C123.815 62.9825 123.647 62.6883 123.519 62.3435C123.391 61.9988 123.327 61.6034 123.327 61.1621C123.327 60.7622 123.382 60.3945 123.496 60.0543C123.61 59.7187 123.774 59.4245 123.993 59.1763C124.212 58.9281 124.486 58.735 124.81 58.5925C125.134 58.4546 125.503 58.3856 125.923 58.3856C126.325 58.3856 126.676 58.45 126.977 58.5787C127.278 58.7074 127.547 58.8959 127.789 59.1349L127.447 59.613Z" fill="#990000"/>
<path d="M130.664 58.4685V63.8744H129.373V58.4685H130.664ZM130.842 56.8918C130.842 57.0067 130.819 57.1078 130.773 57.209C130.728 57.3055 130.668 57.3928 130.595 57.4664C130.522 57.5399 130.431 57.5997 130.331 57.6411C130.23 57.687 130.121 57.71 130.007 57.71C129.897 57.71 129.792 57.687 129.692 57.6411C129.592 57.5997 129.505 57.5399 129.432 57.4664C129.359 57.3928 129.304 57.3055 129.259 57.209C129.217 57.1078 129.195 57.0067 129.195 56.8918C129.195 56.7769 129.217 56.6665 129.259 56.5654C129.304 56.4643 129.359 56.3769 129.432 56.3034C129.505 56.2298 129.592 56.1701 129.692 56.1241C129.792 56.0827 129.897 56.0597 130.007 56.0597C130.121 56.0597 130.23 56.0827 130.331 56.1241C130.431 56.1701 130.522 56.2298 130.595 56.3034C130.668 56.3769 130.728 56.4643 130.773 56.5654C130.819 56.6665 130.842 56.7769 130.842 56.8918ZM136.116 60.5509C136.116 60.3808 136.093 60.2199 136.043 60.0728C135.997 59.9211 135.929 59.7924 135.833 59.6821C135.737 59.5671 135.619 59.4798 135.477 59.4109C135.331 59.3465 135.162 59.3143 134.971 59.3143C134.601 59.3143 134.309 59.4246 134.095 59.6361C133.88 59.8522 133.743 60.1555 133.684 60.5509H136.116ZM133.657 61.3323C133.68 61.6127 133.725 61.8518 133.803 62.054C133.88 62.2563 133.981 62.4218 134.104 62.5551C134.232 62.6838 134.382 62.7849 134.551 62.8493C134.724 62.9136 134.916 62.9458 135.121 62.9458C135.331 62.9458 135.514 62.9228 135.664 62.8723C135.815 62.8263 135.947 62.7711 136.061 62.7114C136.175 62.6516 136.271 62.5965 136.358 62.5459C136.444 62.4953 136.526 62.4724 136.604 62.4724C136.714 62.4724 136.791 62.5137 136.846 62.5919L137.215 63.0699C137.074 63.2354 136.914 63.3779 136.736 63.4929C136.558 63.6078 136.376 63.6951 136.18 63.7641C135.988 63.833 135.792 63.8836 135.591 63.9112C135.39 63.9387 135.194 63.9525 135.007 63.9525C134.638 63.9525 134.291 63.8882 133.972 63.7641C133.648 63.64 133.369 63.4561 133.137 63.2124C132.899 62.9688 132.712 62.6654 132.575 62.3069C132.439 61.9437 132.375 61.53 132.375 61.0565C132.375 60.6842 132.434 60.3394 132.548 60.013C132.667 59.6867 132.84 59.4063 133.059 59.1672C133.283 58.9236 133.552 58.7351 133.871 58.5926C134.186 58.4547 134.546 58.3858 134.948 58.3858C135.281 58.3858 135.596 58.4363 135.879 58.5466C136.166 58.657 136.412 58.8133 136.618 59.0247C136.823 59.2316 136.983 59.489 137.101 59.7924C137.215 60.0958 137.275 60.4451 137.275 60.8359C137.275 61.0289 137.252 61.1623 137.211 61.2312C137.17 61.3002 137.088 61.3323 136.969 61.3323H133.657ZM140.14 59.4063C140.309 59.0845 140.505 58.8271 140.733 58.6432C140.966 58.4593 141.235 58.3674 141.55 58.3674C141.796 58.3674 141.992 58.4225 142.143 58.5329L142.061 59.5074C142.042 59.5671 142.02 59.6131 141.983 59.6407C141.951 59.6637 141.906 59.6821 141.851 59.6821C141.801 59.6821 141.723 59.6729 141.618 59.6545C141.518 59.6361 141.417 59.6269 141.317 59.6269C141.176 59.6269 141.048 59.6499 140.938 59.6913C140.829 59.7326 140.728 59.7924 140.637 59.8705C140.55 59.9487 140.473 60.0452 140.405 60.1601C140.336 60.2705 140.272 60.3992 140.213 60.5417V63.8744H138.922V58.4685H139.679C139.811 58.4685 139.903 58.4915 139.957 58.5374C140.008 58.5834 140.044 58.6708 140.062 58.7949L140.14 59.4063ZM146.263 61.5668C145.889 61.5852 145.578 61.6173 145.323 61.6633C145.067 61.7093 144.867 61.7736 144.711 61.8472C144.561 61.9207 144.451 62.0035 144.383 62.1046C144.319 62.2011 144.283 62.3115 144.283 62.4264C144.283 62.6516 144.351 62.8171 144.488 62.9137C144.62 63.0148 144.794 63.0607 145.008 63.0607C145.273 63.0607 145.505 63.0148 145.697 62.9183C145.888 62.8217 146.076 62.6746 146.263 62.4769V61.5668ZM143.311 59.2224C143.922 58.6524 144.666 58.3674 145.533 58.3674C145.843 58.3674 146.126 58.4179 146.372 58.5237C146.618 58.6248 146.828 58.7719 146.997 58.9558C147.171 59.1396 147.298 59.3603 147.39 59.6177C147.476 59.8751 147.522 60.1555 147.522 60.4589V63.8744H146.933C146.815 63.8744 146.719 63.856 146.655 63.8192C146.587 63.7825 146.536 63.7089 146.495 63.594L146.381 63.2033C146.244 63.3274 146.112 63.4331 145.984 63.5296C145.857 63.6216 145.724 63.6997 145.583 63.7641C145.446 63.8284 145.295 63.8744 145.14 63.9066C144.981 63.9433 144.803 63.9571 144.611 63.9571C144.387 63.9571 144.178 63.925 143.986 63.8652C143.794 63.8054 143.63 63.7135 143.493 63.5894C143.352 63.4653 143.242 63.3136 143.169 63.1297C143.092 62.9504 143.051 62.7344 143.051 62.4953C143.051 62.3574 143.074 62.2195 143.119 62.0862C143.165 61.9483 143.242 61.8196 143.343 61.7001C143.448 61.576 143.58 61.461 143.74 61.3507C143.904 61.2404 144.109 61.1485 144.346 61.0657C144.584 60.983 144.862 60.9186 145.177 60.868C145.492 60.8175 145.857 60.7853 146.263 60.7761V60.4589C146.263 60.0958 146.185 59.8292 146.034 59.6545C145.879 59.4798 145.66 59.3971 145.368 59.3971C145.163 59.3971 144.99 59.42 144.853 59.4706C144.716 59.5166 144.593 59.5717 144.488 59.6361C144.383 59.6959 144.292 59.751 144.205 59.8016C144.118 59.8522 144.022 59.8751 143.918 59.8751C143.831 59.8751 143.753 59.8522 143.689 59.8016C143.626 59.7556 143.575 59.7005 143.539 59.6361L143.311 59.2224ZM97.9331 70.3468C97.7871 70.1675 97.6274 70.0388 97.454 69.9652C97.2806 69.8917 97.0981 69.8549 96.8974 69.8549C96.7012 69.8549 96.5279 69.8917 96.3727 69.9652C96.213 70.0388 96.0807 70.1491 95.9712 70.3008C95.8572 70.4479 95.7705 70.641 95.7157 70.8708C95.6564 71.1006 95.6245 71.3719 95.6245 71.6844C95.6245 72.0016 95.6519 72.2682 95.7021 72.4889C95.7522 72.7049 95.8252 72.8842 95.9165 73.0221C96.0123 73.1646 96.1264 73.2612 96.2632 73.3255C96.3955 73.3853 96.5507 73.4174 96.7149 73.4174C96.9841 73.4174 97.2122 73.3623 97.3993 73.2474C97.5863 73.137 97.7643 72.9762 97.9331 72.7693V70.3468ZM99.2197 66.5406V74.3736H98.4304C98.2616 74.3736 98.1521 74.2908 98.111 74.1346L98.0015 73.6105C97.7825 73.8633 97.5361 74.0656 97.2578 74.2173C96.975 74.3736 96.651 74.4517 96.2769 74.4517C95.9849 74.4517 95.7157 74.3874 95.4739 74.2679C95.2321 74.1437 95.0223 73.9645 94.8443 73.73C94.671 73.4956 94.5341 73.2106 94.4383 72.8658C94.3425 72.5211 94.2923 72.1257 94.2923 71.6844C94.2923 71.2845 94.347 70.9122 94.4565 70.5674C94.5615 70.2226 94.7166 69.9238 94.9219 69.671C95.1226 69.4182 95.3644 69.2205 95.6473 69.078C95.9256 68.9355 96.245 68.8666 96.5963 68.8666C96.8928 68.8666 97.1483 68.9125 97.3628 69.0091C97.5772 69.101 97.7643 69.2297 97.9331 69.3906V66.5406H99.2197ZM104.626 71.0455C104.626 70.8754 104.608 70.7191 104.558 70.5674C104.512 70.4203 104.439 70.2916 104.348 70.1767C104.252 70.0663 104.133 69.9744 103.992 69.9101C103.846 69.8457 103.677 69.8135 103.486 69.8135C103.111 69.8135 102.819 69.9192 102.605 70.1353C102.395 70.3468 102.254 70.6547 102.194 71.0455H104.626ZM102.172 71.8315C102.19 72.1073 102.24 72.3464 102.318 72.5486C102.395 72.7509 102.495 72.921 102.619 73.0497C102.746 73.183 102.892 73.2795 103.066 73.3439C103.239 73.4129 103.426 73.445 103.636 73.445C103.846 73.445 104.028 73.4174 104.179 73.3715C104.33 73.3209 104.462 73.2657 104.576 73.206C104.685 73.1462 104.786 73.0911 104.872 73.0451C104.959 72.9945 105.037 72.9716 105.119 72.9716C105.228 72.9716 105.306 73.0083 105.361 73.0911L105.73 73.5645C105.589 73.7346 105.429 73.8725 105.251 73.9875C105.073 74.1024 104.886 74.1943 104.695 74.2633C104.503 74.3322 104.307 74.3782 104.106 74.4104C103.905 74.4379 103.709 74.4517 103.522 74.4517C103.148 74.4517 102.806 74.3874 102.482 74.2633C102.162 74.1392 101.884 73.9553 101.647 73.707C101.414 73.4634 101.227 73.1646 101.09 72.8015C100.953 72.4429 100.885 72.0246 100.885 71.5511C100.885 71.1834 100.944 70.834 101.063 70.5122C101.182 70.1859 101.355 69.9009 101.574 69.6618C101.793 69.4228 102.062 69.2297 102.381 69.0918C102.701 68.9493 103.061 68.8804 103.458 68.8804C103.796 68.8804 104.111 68.9355 104.393 69.0458C104.681 69.1516 104.923 69.3125 105.128 69.5193C105.333 69.7308 105.498 69.9836 105.612 70.2916C105.73 70.595 105.785 70.9397 105.785 71.3305C105.785 71.5281 105.767 71.6615 105.726 71.7258C105.685 71.7948 105.602 71.8315 105.484 71.8315H102.172ZM114.673 72.5762C114.75 72.5762 114.819 72.6038 114.878 72.6636L115.43 73.2704C115.124 73.6519 114.75 73.9461 114.303 74.1483C113.856 74.3552 113.318 74.4563 112.692 74.4563C112.131 74.4563 111.629 74.3598 111.182 74.1667C110.735 73.9737 110.352 73.7025 110.037 73.3577C109.718 73.0175 109.476 72.6038 109.307 72.1257C109.138 71.6477 109.056 71.1282 109.056 70.5628C109.056 69.9882 109.143 69.4642 109.325 68.9861C109.508 68.5126 109.763 68.1035 110.092 67.7587C110.42 67.414 110.813 67.1473 111.264 66.9543C111.721 66.7612 112.227 66.6693 112.779 66.6693C113.331 66.6693 113.819 66.7566 114.244 66.9405C114.673 67.1244 115.033 67.3634 115.334 67.6576L114.864 68.3149C114.837 68.3609 114.8 68.3977 114.755 68.4253C114.714 68.4574 114.65 68.4758 114.577 68.4758C114.522 68.4758 114.467 68.4575 114.412 68.4299C114.358 68.3977 114.298 68.3609 114.23 68.3195C114.166 68.2736 114.089 68.2276 114.002 68.1724C113.915 68.1219 113.815 68.0713 113.701 68.0299C113.582 67.984 113.45 67.9472 113.299 67.9196C113.149 67.8874 112.975 67.8736 112.775 67.8736C112.437 67.8736 112.131 67.9334 111.848 68.0529C111.57 68.177 111.328 68.3517 111.128 68.5816C110.922 68.8114 110.767 69.0918 110.658 69.4228C110.544 69.7584 110.489 70.1353 110.489 70.5628C110.489 70.9903 110.548 71.3719 110.671 71.7028C110.79 72.0384 110.954 72.3188 111.155 72.5486C111.36 72.7785 111.602 72.9486 111.88 73.0727C112.159 73.1922 112.46 73.2565 112.779 73.2565C112.971 73.2565 113.144 73.2428 113.299 73.2244C113.454 73.2014 113.596 73.1692 113.728 73.1232C113.86 73.0773 113.984 73.0175 114.098 72.944C114.216 72.875 114.33 72.7831 114.444 72.6819C114.481 72.6498 114.517 72.6222 114.554 72.6038C114.595 72.5854 114.631 72.5762 114.673 72.5762ZM119.139 68.8804C119.536 68.8804 119.896 68.9447 120.22 69.0734C120.549 69.2067 120.827 69.3906 121.055 69.6296C121.288 69.8687 121.466 70.1583 121.589 70.503C121.717 70.8478 121.776 71.2339 121.776 71.6569C121.776 72.0844 121.717 72.4705 121.589 72.8153C121.466 73.16 121.288 73.4542 121.055 73.6979C120.827 73.9415 120.549 74.1254 120.22 74.2541C119.896 74.3874 119.536 74.4517 119.139 74.4517C118.738 74.4517 118.373 74.3874 118.049 74.2541C117.72 74.1254 117.442 73.9415 117.209 73.6979C116.981 73.4542 116.799 73.16 116.671 72.8153C116.548 72.4705 116.479 72.0844 116.479 71.6569C116.479 71.2339 116.548 70.8478 116.671 70.503C116.799 70.1583 116.981 69.8687 117.209 69.6296C117.442 69.3906 117.72 69.2067 118.049 69.0734C118.373 68.9447 118.738 68.8804 119.139 68.8804ZM119.139 73.4496C119.582 73.4496 119.915 73.2979 120.129 72.9945C120.344 72.6957 120.449 72.2498 120.449 71.666C120.449 71.0868 120.344 70.641 120.129 70.333C119.915 70.0296 119.582 69.8779 119.139 69.8779C118.687 69.8779 118.35 70.0296 118.135 70.3376C117.916 70.6456 117.807 71.0868 117.807 71.666C117.807 72.2498 117.916 72.6866 118.135 72.9945C118.35 73.2979 118.687 73.4496 119.139 73.4496ZM124.755 66.5406V74.3736H123.464V66.5406H124.755ZM129.099 68.8804C129.496 68.8804 129.856 68.9447 130.18 69.0734C130.509 69.2067 130.787 69.3906 131.015 69.6296C131.248 69.8687 131.426 70.1583 131.549 70.503C131.677 70.8478 131.736 71.2339 131.736 71.6569C131.736 72.0844 131.677 72.4705 131.549 72.8153C131.426 73.16 131.248 73.4542 131.015 73.6979C130.787 73.9415 130.509 74.1254 130.18 74.2541C129.856 74.3874 129.496 74.4517 129.099 74.4517C128.697 74.4517 128.332 74.3874 128.008 74.2541C127.68 74.1254 127.402 73.9415 127.169 73.6979C126.936 73.4542 126.758 73.16 126.631 72.8153C126.507 72.4705 126.439 72.0844 126.439 71.6569C126.439 71.2339 126.507 70.8478 126.631 70.503C126.758 70.1583 126.936 69.8687 127.169 69.6296C127.402 69.3906 127.68 69.2067 128.008 69.0734C128.332 68.9447 128.697 68.8804 129.099 68.8804ZM129.099 73.4496C129.541 73.4496 129.874 73.2979 130.089 72.9945C130.303 72.6957 130.408 72.2498 130.408 71.666C130.408 71.0868 130.303 70.641 130.089 70.333C129.874 70.0296 129.541 69.8779 129.099 69.8779C128.647 69.8779 128.31 70.0296 128.095 70.3376C127.876 70.6456 127.767 71.0868 127.767 71.666C127.767 72.2498 127.876 72.6866 128.095 72.9945C128.31 73.2979 128.647 73.4496 129.099 73.4496ZM133.41 74.3736V68.9631H134.195C134.364 68.9631 134.473 69.0459 134.528 69.2021L134.61 69.6021C134.701 69.4963 134.802 69.3998 134.907 69.3125C135.007 69.2251 135.117 69.147 135.235 69.0872C135.349 69.0229 135.477 68.9723 135.609 68.9355C135.742 68.8987 135.888 68.8804 136.052 68.8804C136.39 68.8804 136.668 68.9723 136.882 69.1562C137.101 69.34 137.261 69.5883 137.37 69.8917C137.453 69.7124 137.558 69.5607 137.685 69.432C137.808 69.3033 137.945 69.1975 138.096 69.1194C138.246 69.0367 138.406 68.9769 138.575 68.9401C138.744 68.8988 138.913 68.8804 139.081 68.8804C139.378 68.8804 139.643 68.9263 139.871 69.0183C140.099 69.1102 140.29 69.2435 140.45 69.4182C140.605 69.5929 140.724 69.8089 140.806 70.0618C140.888 70.3146 140.929 70.6042 140.929 70.9305V74.3736H139.643V70.9305C139.643 70.5858 139.565 70.3284 139.414 70.1537C139.268 69.979 139.045 69.8917 138.757 69.8917C138.625 69.8917 138.507 69.9147 138.392 69.9606C138.278 70.0066 138.178 70.0709 138.096 70.1583C138.009 70.2456 137.941 70.3514 137.891 70.4847C137.845 70.6134 137.818 70.7605 137.818 70.9305V74.3736H136.526V70.9305C136.526 70.5674 136.453 70.3054 136.307 70.1399C136.166 69.9744 135.952 69.8917 135.673 69.8917C135.486 69.8917 135.313 69.9376 135.149 70.0296C134.989 70.1261 134.838 70.2502 134.697 70.4157V74.3736H133.41ZM144.123 72.9716C144.269 73.1508 144.429 73.2749 144.602 73.3485C144.775 73.422 144.958 73.4588 145.149 73.4588C145.346 73.4588 145.524 73.422 145.683 73.3531C145.843 73.2795 145.975 73.1646 146.085 73.0129C146.199 72.8612 146.285 72.6636 146.34 72.4291C146.4 72.1901 146.431 71.9097 146.431 71.5787C146.431 70.9857 146.336 70.5536 146.139 70.2916C145.943 70.025 145.665 69.8917 145.3 69.8917C145.054 69.8917 144.835 69.9468 144.652 70.0618C144.465 70.1767 144.292 70.3376 144.123 70.5444V72.9716ZM144.123 69.6296C144.342 69.3998 144.579 69.2159 144.844 69.0826C145.104 68.9493 145.405 68.8804 145.743 68.8804C146.053 68.8804 146.331 68.9401 146.582 69.0642C146.828 69.1884 147.043 69.363 147.216 69.5929C147.394 69.8227 147.526 70.1031 147.622 70.4295C147.713 70.7559 147.764 71.1236 147.764 71.5327C147.764 71.9694 147.709 72.3694 147.599 72.7279C147.494 73.0865 147.339 73.3899 147.139 73.6473C146.938 73.9001 146.696 74.0978 146.418 74.2403C146.135 74.3782 145.82 74.4517 145.478 74.4517C145.309 74.4517 145.159 74.4334 145.022 74.4012C144.885 74.3644 144.762 74.3184 144.648 74.2587C144.533 74.1989 144.429 74.1254 144.333 74.0426C144.237 73.9553 144.146 73.8587 144.054 73.753L144 74.1208C143.977 74.2081 143.945 74.2771 143.895 74.3138C143.845 74.3506 143.772 74.3736 143.685 74.3736H142.836V66.5406H144.123V69.6296ZM150.779 68.9631V74.3736H149.484V68.9631H150.779ZM150.957 67.391C150.957 67.5013 150.934 67.607 150.889 67.7036C150.843 67.8047 150.784 67.892 150.711 67.9656C150.633 68.0391 150.547 68.0943 150.446 68.1403C150.346 68.1816 150.236 68.2046 150.122 68.2046C150.008 68.2046 149.908 68.1816 149.808 68.1403C149.707 68.0943 149.621 68.0391 149.548 67.9656C149.475 67.892 149.415 67.8047 149.374 67.7036C149.329 67.607 149.306 67.5013 149.306 67.391C149.306 67.2715 149.329 67.1657 149.374 67.0646C149.415 66.9589 149.475 66.8715 149.548 66.798C149.621 66.7244 149.707 66.6647 149.808 66.6233C149.908 66.5773 150.008 66.5544 150.122 66.5544C150.236 66.5544 150.346 66.5773 150.446 66.6233C150.547 66.6647 150.633 66.7244 150.711 66.798C150.784 66.8715 150.843 66.9589 150.889 67.0646C150.934 67.1657 150.957 67.2715 150.957 67.391ZM155.606 72.0614C155.237 72.0798 154.922 72.1119 154.667 72.1579C154.416 72.2085 154.21 72.2682 154.06 72.3418C153.905 72.4153 153.795 72.5027 153.731 72.5992C153.663 72.7003 153.631 72.8061 153.631 72.921C153.631 73.1508 153.699 73.3117 153.832 73.4129C153.964 73.5094 154.142 73.56 154.356 73.56C154.621 73.56 154.849 73.5094 155.041 73.4129C155.237 73.3163 155.424 73.1738 155.606 72.9762V72.0614ZM152.655 69.717C153.27 69.147 154.01 68.8666 154.876 68.8666C155.191 68.8666 155.47 68.9171 155.716 69.0183C155.967 69.124 156.172 69.2665 156.346 69.4504C156.514 69.6342 156.647 69.8549 156.733 70.1123C156.82 70.3697 156.866 70.6502 156.866 70.9581V74.3736H156.282C156.158 74.3736 156.067 74.3506 155.999 74.3138C155.935 74.2771 155.88 74.2035 155.844 74.0932L155.73 73.7024C155.593 73.8266 155.46 73.9323 155.333 74.0242C155.2 74.1208 155.068 74.1989 154.931 74.2587C154.79 74.323 154.644 74.3736 154.484 74.4058C154.324 74.4379 154.151 74.4563 153.959 74.4563C153.731 74.4563 153.526 74.4242 153.334 74.3644C153.143 74.3 152.974 74.2081 152.837 74.0886C152.696 73.9645 152.591 73.8128 152.513 73.6289C152.436 73.445 152.399 73.2336 152.399 72.9899C152.399 72.852 152.422 72.7187 152.467 72.5808C152.513 72.4475 152.586 72.3188 152.691 72.1947C152.791 72.0706 152.924 71.9557 153.088 71.8453C153.252 71.7396 153.453 71.6431 153.69 71.5649C153.927 71.4822 154.206 71.4132 154.521 71.3627C154.84 71.3121 155.2 71.2845 155.606 71.2707V70.9581C155.606 70.595 155.533 70.3284 155.378 70.1537C155.223 69.979 155.004 69.8917 154.717 69.8917C154.507 69.8917 154.334 69.9147 154.197 69.9652C154.06 70.0158 153.937 70.0709 153.832 70.1307C153.731 70.1905 153.635 70.2502 153.549 70.2962C153.467 70.3467 153.371 70.3697 153.266 70.3697C153.175 70.3697 153.097 70.3468 153.033 70.3008C152.974 70.2502 152.924 70.1997 152.883 70.1353L152.655 69.717Z" fill="#990000"/>
</svg>
