<?xml version="1.0" encoding="utf-8"?>
<!-- Generator: Adobe Illustrator 23.0.6, SVG Export Plug-In . SVG Version: 6.00 Build 0)  -->
<svg version="1.1" id="Capa_1" xmlns="http://www.w3.org/2000/svg" xmlns:xlink="http://www.w3.org/1999/xlink" x="0px" y="0px"
	 viewBox="0 0 200 200" style="enable-background:new 0 0 200 200;" xml:space="preserve">
<style type="text/css">
	.st0{fill:#0A5DA8;}
	.st1{fill:#FFFFFF;}
	.st2{fill:none;stroke:#0A5DA8;stroke-width:1.4636;stroke-linecap:round;stroke-linejoin:round;stroke-miterlimit:10;}
	.st3{fill:none;stroke:#0A5DA8;stroke-width:5.2862;stroke-linecap:round;stroke-linejoin:round;stroke-miterlimit:10;}
</style>
<g>
	<path class="st1" d="M158.2,85.6V5H34.4L5,34.4V195h153.2v-19.3c21.1-4.3,36.8-23.2,36.8-45C195,108.5,179.2,89.9,158.2,85.6z
		 M32.6,15.5v17.1H15.5L32.6,15.5z M154.8,170.1l-2.6,0.4v18.4h-141V38.7h27.6V11.1h113.4v73.7c-1-0.1-2-0.1-3.1-0.1
		c-1,0-2.1,0.1-3.1,0.2V60.2h-18.4V90c-2.2,1.2-4.2,2.5-6.1,3.9V35.6h-18.4v67.4h-6.1V17.2H78.5v85.8h-6.1V54H54v49.1h-6.1V72.4
		H29.5v30.6h-6.1V44.8h-6.1v64.4h91.2c-3.4,6.4-5.3,13.7-5.3,21.5c0,24,18.7,44.2,42.7,45.9l0.4-6.1c-20.8-1.4-37-18.9-37-39.7
		c0-22,17.9-39.8,39.8-39.8s39.8,17.9,39.8,39.8C188.9,150.4,174.2,167.3,154.8,170.1z M139.9,85.6c-2.1,0.4-4.1,1-6.1,1.7V66.3h6.1
		V85.6z M112.4,103.1h-3.1V41.8h6.1v57.7C114.3,100.7,113.3,101.8,112.4,103.1z M90.8,103.1h-6.1V23.4h6.1V103.1z M66.3,103.1h-6.1
		V60.2h6.1V103.1z M41.8,103.1h-6.1V78.5h6.1V103.1z"/>
	
		<rect x="115.3" y="127.6" transform="matrix(0.7071 -0.7071 0.7071 0.7071 -48.7218 143.6422)" class="st1" width="67.4" height="6.1"/>
	<path class="st1" d="M161.3,133.7c-5.1,0-9.2,4.1-9.2,9.2c0,5.1,4.1,9.2,9.2,9.2s9.2-4.1,9.2-9.2S166.4,133.7,161.3,133.7z
		 M161.3,146c-1.7,0-3.1-1.4-3.1-3.1c0-1.7,1.4-3.1,3.1-3.1c1.7,0,3.1,1.4,3.1,3.1C164.4,144.6,163,146,161.3,146z"/>
	<path class="st1" d="M136.8,127.6c5.1,0,9.2-4.1,9.2-9.2c0-5.1-4.1-9.2-9.2-9.2c-5.1,0-9.2,4.1-9.2,9.2
		C127.6,123.5,131.7,127.6,136.8,127.6z M136.8,115.3c1.7,0,3.1,1.4,3.1,3.1c0,1.7-1.4,3.1-3.1,3.1c-1.7,0-3.1-1.4-3.1-3.1
		C133.7,116.7,135.1,115.3,136.8,115.3z"/>
	<rect x="17.2" y="115.3" class="st1" width="6.1" height="6.1"/>
	<rect x="29.5" y="115.3" class="st1" width="67.4" height="6.1"/>
	<rect x="17.2" y="127.6" class="st1" width="79.7" height="6.1"/>
	<rect x="17.2" y="139.9" class="st1" width="79.7" height="6.1"/>
	<rect x="17.2" y="152.1" class="st1" width="82.8" height="6.1"/>
	<rect x="17.2" y="164.4" class="st1" width="95" height="6.1"/>
	<rect x="17.2" y="176.6" class="st1" width="82.8" height="6.1"/>
	<rect x="106.2" y="176.6" class="st1" width="6.1" height="6.1"/>
</g>
</svg>
