<?xml version="1.0" encoding="utf-8"?>
<!-- Generator: Adobe Illustrator 26.2.1, SVG Export Plug-In . SVG Version: 6.00 Build 0)  -->
<svg version="1.1" id="Capa_1" xmlns="http://www.w3.org/2000/svg" xmlns:xlink="http://www.w3.org/1999/xlink" x="0px" y="0px"
	 viewBox="0 0 1245.99 621.7" style="enable-background:new 0 0 1245.99 621.7;" xml:space="preserve">
<style type="text/css">
	.st0{fill:#0A5DA8;}
	.st1{fill:#FFFFFF;}
	.st2{fill:none;stroke:#0A5DA8;stroke-width:1.4636;stroke-linecap:round;stroke-linejoin:round;stroke-miterlimit:10;}
</style>
<rect x="-166.48" y="-33.82" class="st0" width="1110.73" height="772.57"/>
<rect x="1329.23" y="-33.82" class="st0" width="1110.73" height="772.57"/>
<g>
	<path class="st1" d="M2091.3,432.04l2.68-1.55c-4.14-7.15-11.83-11.59-20.08-11.59c-12.79,0-23.19,10.4-23.19,23.19
		c0,12.79,10.4,23.19,23.19,23.19c2.85,0,5.64-0.51,8.28-1.52l-1.11-2.89c-2.29,0.87-4.7,1.32-7.18,1.32
		c-11.08,0-20.1-9.02-20.1-20.1s9.02-20.1,20.1-20.1C2081.04,421.99,2087.71,425.85,2091.3,432.04z"/>
	<path class="st1" d="M2072.34,441.14l-8.42,4.21l1.38,2.77l9.28-4.64c0.52-0.26,0.85-0.8,0.85-1.38v-15.46h-3.09V441.14z"/>
</g>
<g>
	<path class="st1" d="M1569.83,443.9v-19.49h-29.95l-7.1,7.1v38.84h37.05v-4.67c5.11-1.04,8.89-5.61,8.89-10.89
		C1578.72,449.42,1574.9,444.93,1569.83,443.9z M1539.44,426.94v4.14h-4.14L1539.44,426.94z M1568.98,464.33l-0.64,0.09v4.45h-34.09
		v-36.31h6.67v-6.67h27.42v17.81c-0.25-0.02-0.49-0.02-0.74-0.02c-0.25,0-0.5,0.02-0.74,0.04v-5.97h-4.45v7.22
		c-0.52,0.28-1.01,0.6-1.48,0.95v-14.1h-4.45v16.3h-1.48v-20.75h-4.45v20.75h-1.48v-11.86h-4.45v11.86h-1.48v-7.41h-4.45v7.41h-1.48
		v-14.08h-1.48v15.56h22.04c-0.82,1.55-1.29,3.31-1.29,5.19c0,5.81,4.53,10.68,10.32,11.09l0.1-1.48c-5.02-0.35-8.95-4.57-8.95-9.61
		c0-5.31,4.32-9.63,9.63-9.63c5.31,0,9.63,4.32,9.63,9.63C1577.24,459.55,1573.69,463.65,1568.98,464.33z M1565.38,443.9
		c-0.51,0.1-1,0.25-1.48,0.42v-5.09h1.48V443.9z M1558.73,448.12h-0.76V433.3h1.48v13.96
		C1559.2,447.53,1558.96,447.82,1558.73,448.12z M1553.52,448.12h-1.48v-19.27h1.48V448.12z M1547.6,448.12h-1.48v-10.37h1.48
		V448.12z M1541.67,448.12h-1.48v-5.93h1.48V448.12z"/>
	
		<rect x="1559.45" y="454.05" transform="matrix(0.7071 -0.7071 0.7071 0.7071 137.5518 1241.6597)" class="st1" width="16.3" height="1.48"/>
	<path class="st1" d="M1570.57,455.53c-1.23,0-2.22,1-2.22,2.22s1,2.22,2.22,2.22s2.22-1,2.22-2.22S1571.79,455.53,1570.57,455.53z
		 M1570.57,458.49c-0.41,0-0.74-0.33-0.74-0.74s0.33-0.74,0.74-0.74c0.41,0,0.74,0.33,0.74,0.74S1570.98,458.49,1570.57,458.49z"/>
	<path class="st1" d="M1564.64,454.05c1.23,0,2.22-1,2.22-2.22s-1-2.22-2.22-2.22s-2.22,1-2.22,2.22S1563.41,454.05,1564.64,454.05z
		 M1564.64,451.08c0.41,0,0.74,0.33,0.74,0.74c0,0.41-0.33,0.74-0.74,0.74s-0.74-0.33-0.74-0.74
		C1563.9,451.42,1564.23,451.08,1564.64,451.08z"/>
	<rect x="1535.74" y="451.08" class="st1" width="1.48" height="1.48"/>
	<rect x="1538.7" y="451.08" class="st1" width="16.3" height="1.48"/>
	<rect x="1535.74" y="454.05" class="st1" width="19.27" height="1.48"/>
	<rect x="1535.74" y="457.01" class="st1" width="19.27" height="1.48"/>
	<rect x="1535.74" y="459.98" class="st1" width="20.01" height="1.48"/>
	<rect x="1535.74" y="462.94" class="st1" width="22.97" height="1.48"/>
	<rect x="1535.74" y="465.9" class="st1" width="20.01" height="1.48"/>
	<rect x="1557.23" y="465.9" class="st1" width="1.48" height="1.48"/>
</g>
<g>
	<g>
		<path class="st0" d="M2632.63,161.24h-6.14v-2.45c0-1.35-1.1-2.45-2.46-2.45h-2.45c-1.35,0-2.46,1.1-2.46,2.45v2.45h-17.18v-2.45
			c0-1.35-1.1-2.45-2.46-2.45h-2.45c-1.35,0-2.46,1.1-2.46,2.45v2.45h-6.14c-0.68,0-1.23,0.55-1.23,1.23v35.6
			c0,0.68,0.55,1.23,1.23,1.23h44.19c0.68,0,1.23-0.55,1.23-1.23v-35.6C2633.86,161.79,2633.31,161.24,2632.63,161.24z
			 M2621.59,158.79h2.45l0,3.68h-2.46V158.79z M2597.04,158.79h2.45l0,3.68h-2.46V158.79z M2594.92,163.7
			c0.43,0.73,1.21,1.23,2.11,1.23h2.45c0.9,0,1.69-0.5,2.11-1.23h17.87c0.43,0.73,1.21,1.23,2.11,1.23h2.45
			c0.9,0,1.69-0.5,2.11-1.23h5.25v3.68h-41.73v-3.68H2594.92z M2589.67,196.84v-27h41.73v27H2589.67z"/>
		<path class="st0" d="M2600.72,172.29h-7.36c-0.68,0-1.23,0.55-1.23,1.23v7.36c0,0.68,0.55,1.23,1.23,1.23h7.36
			c0.68,0,1.23-0.55,1.23-1.23v-7.36C2601.95,172.84,2601.4,172.29,2600.72,172.29z M2599.49,179.65h-4.91v-4.91h4.91V179.65z"/>
		<path class="st0" d="M2600.72,184.56h-7.36c-0.68,0-1.23,0.55-1.23,1.23v7.36c0,0.68,0.55,1.23,1.23,1.23h7.36
			c0.68,0,1.23-0.55,1.23-1.23v-7.36C2601.95,185.11,2601.4,184.56,2600.72,184.56z M2599.49,191.93h-4.91v-4.91h4.91V191.93z"/>
		<path class="st0" d="M2614.22,172.29h-7.36c-0.68,0-1.23,0.55-1.23,1.23v7.36c0,0.68,0.55,1.23,1.23,1.23h7.36
			c0.68,0,1.23-0.55,1.23-1.23v-7.36C2615.45,172.84,2614.9,172.29,2614.22,172.29z M2612.99,179.65h-4.91v-4.91h4.91V179.65z"/>
		<path class="st0" d="M2614.22,184.56h-7.36c-0.68,0-1.23,0.55-1.23,1.23v7.36c0,0.68,0.55,1.23,1.23,1.23h7.36
			c0.68,0,1.23-0.55,1.23-1.23v-7.36C2615.45,185.11,2614.9,184.56,2614.22,184.56z M2612.99,191.93h-4.91v-4.91h4.91V191.93z"/>
		<path class="st0" d="M2627.72,172.29h-7.36c-0.68,0-1.23,0.55-1.23,1.23v7.36c0,0.68,0.55,1.23,1.23,1.23h7.36
			c0.68,0,1.23-0.55,1.23-1.23v-7.36C2628.95,172.84,2628.4,172.29,2627.72,172.29z M2626.5,179.65h-4.91v-4.91h4.91V179.65z"/>
		<path class="st0" d="M2627.72,184.56h-7.36c-0.68,0-1.23,0.55-1.23,1.23v7.36c0,0.68,0.55,1.23,1.23,1.23h7.36
			c0.68,0,1.23-0.55,1.23-1.23v-7.36C2628.95,185.11,2628.4,184.56,2627.72,184.56z M2626.5,191.93h-4.91v-4.91h4.91V191.93z"/>
	</g>
</g>
<g>
	<g>
		<path class="st0" d="M2583.92,329.68h37.64c0.51,0,0.92-0.41,0.92-0.92v-4.59c0-0.51-0.41-0.92-0.92-0.92h-1.84v-6.43h-1.84v6.43
			h-2.75v-6.43h-1.84v6.43h-2.75v-8.26h-1.84v8.26h-2.75v-16.52h-21.12v-2.15l17.9-7.86l3.81,1.67l0.73-1.68l-4.18-1.84
			c-0.23-0.1-0.5-0.1-0.73,0l-18.82,8.26c-0.33,0.15-0.55,0.48-0.55,0.84v3.67c0,0.51,0.41,0.92,0.92,0.92h1.84v14.69h-1.84
			c-0.51,0-0.92,0.41-0.92,0.92v4.59C2583,329.27,2583.41,329.68,2583.92,329.68z M2604.11,323.26h-2.75v-14.69h2.75V323.26z
			 M2599.52,308.57v14.69h-2.75v-14.69H2599.52z M2592.18,323.26v-14.69h2.75v14.69H2592.18z M2587.59,308.57h2.75v14.69h-2.75
			V308.57z M2584.83,325.09h35.8v2.75h-35.8V325.09z"/>
		<path class="st0" d="M2599.52,301.68c0,1.77,1.44,3.21,3.21,3.21s3.21-1.44,3.21-3.21c0-1.77-1.44-3.21-3.21-3.21
			S2599.52,299.91,2599.52,301.68z M2604.11,301.68c0,0.76-0.62,1.38-1.38,1.38s-1.38-0.62-1.38-1.38c0-0.76,0.62-1.38,1.38-1.38
			l0,0C2603.5,300.31,2604.11,300.92,2604.11,301.68z"/>
		<path class="st0" d="M2637.16,280.11h-8.61l-2.5-5c-0.16-0.31-0.48-0.51-0.83-0.51h-11.93c-0.51,0-0.92,0.41-0.92,0.91
			c0,0.14,0.03,0.29,0.1,0.42l2.09,4.18H2609c-1.69,0-3.05,1.37-3.05,3.05c0,1.31,0.84,2.48,2.09,2.89l0.67,0.22v7.6
			c0,1.06,0.61,2.02,1.57,2.48l-1.89,3.07c-0.99,1.61-1.52,3.46-1.51,5.35c0,2.19,0.71,4.32,2.02,6.08
			c1.26,1.71,3.02,2.98,5.04,3.63c1.02,0.34,2.09,0.51,3.16,0.51h3.43c5.64-0.01,10.21-4.58,10.22-10.22v-0.73
			c0-2.02-0.59-3.99-1.72-5.66l-1.16-1.74h9.3c0.51,0,0.92-0.41,0.92-0.92v-14.69C2638.08,280.52,2637.67,280.11,2637.16,280.11z
			 M2626.5,280.11h-3.46l1.73-3.46L2626.5,280.11z M2614.78,276.44h8.05l-1.84,3.67h-4.37L2614.78,276.44z M2609.91,284.75
			l-1.29-0.43c-0.64-0.21-0.98-0.9-0.77-1.54c0.16-0.5,0.63-0.83,1.15-0.83h19.9v12.85h-17.44c-0.51,0-0.92-0.41-0.92-0.92v-8.26
			C2610.54,285.22,2610.29,284.87,2609.91,284.75L2609.91,284.75z M2627.5,299.39c0.92,1.38,1.41,2.99,1.41,4.65v0.73
			c-0.01,4.63-3.75,8.38-8.38,8.38h-3.43c-0.88,0-1.76-0.14-2.59-0.42c-1.66-0.54-3.1-1.58-4.14-2.98
			c-1.07-1.44-1.65-3.19-1.65-4.99c0-1.55,0.43-3.07,1.24-4.39l2.31-3.75h13.4L2627.5,299.39z M2636.24,294.8h-5.51v-12.85h5.51
			V294.8z"/>
		<rect x="2632.57" y="291.13" class="st0" width="1.84" height="1.84"/>
		<path class="st0" d="M2617.88,305.81h1.84c0.51,0,0.92,0.41,0.92,0.92c0,0.51-0.41,0.92-0.92,0.92h-3.67v1.84h1.84v1.84h1.84
			v-1.84c1.52,0,2.75-1.23,2.75-2.75c0-1.52-1.23-2.75-2.75-2.75h-1.84c-0.51,0-0.92-0.41-0.92-0.92c0-0.51,0.41-0.92,0.92-0.92
			h3.67v-1.84h-1.84v-1.84h-1.84v1.84c-1.52,0-2.75,1.23-2.75,2.75C2615.13,304.58,2616.36,305.81,2617.88,305.81z"/>
	</g>
</g>
<g>
	<g>
		<path class="st0" d="M2629.35,404h-8.11h-13.39v-14.33v-8.06c0-0.5-0.4-0.9-0.9-0.9h-2.3c-0.4,0-0.75,0.27-0.86,0.65l-0.76,2.72
			c-0.89,0.18-1.76,0.41-2.6,0.7l-2-1.97c-0.26-0.26-0.66-0.33-1-0.18c-1.45,0.65-2.84,1.46-4.13,2.4c-0.3,0.22-0.43,0.59-0.34,0.95
			l0.7,2.73c-0.68,0.6-1.32,1.24-1.91,1.92l-2.71-0.7c-0.36-0.09-0.73,0.04-0.95,0.34c-0.93,1.29-1.74,2.69-2.39,4.15
			c-0.15,0.33-0.08,0.73,0.18,0.99l1.96,2.02c-0.29,0.85-0.52,1.73-0.7,2.62l-2.81,0.77c-0.39,0.11-0.66,0.46-0.66,0.86v4.62
			c0,0.4,0.27,0.76,0.66,0.86l2.81,0.77c0.17,0.89,0.41,1.77,0.7,2.62l-1.96,2.02c-0.26,0.26-0.33,0.65-0.18,0.99
			c0.65,1.46,1.46,2.86,2.39,4.15c0.22,0.3,0.59,0.43,0.95,0.34l2.71-0.7c0.59,0.68,1.23,1.32,1.91,1.92l-0.7,2.73
			c-0.09,0.35,0.04,0.73,0.34,0.95c1.29,0.94,2.68,1.75,4.13,2.4c0.34,0.15,0.73,0.08,1-0.18l2-1.97c0.84,0.29,1.72,0.52,2.6,0.7
			l0.76,2.72c0.11,0.39,0.46,0.65,0.86,0.65h4.6c0.4,0,0.75-0.27,0.86-0.65l0.76-2.72c0.89-0.17,1.76-0.41,2.6-0.7l2,1.97
			c0.26,0.26,0.66,0.33,1,0.18c1.45-0.65,2.84-1.46,4.13-2.4c0.3-0.22,0.43-0.59,0.34-0.95l-0.7-2.73c0.68-0.6,1.32-1.24,1.91-1.92
			l2.71,0.7c0.36,0.09,0.73-0.04,0.95-0.34c0.93-1.3,1.74-2.69,2.39-4.15c0.15-0.33,0.08-0.73-0.18-0.99l-1.96-2.02
			c0.29-0.85,0.52-1.73,0.7-2.62l2.81-0.77c0.39-0.11,0.66-0.46,0.66-0.86v-1.41C2630.25,404.4,2629.85,404,2629.35,404z
			 M2606.96,405.79h13.3c-0.88,6.6-6.55,11.65-13.3,11.65c-7.41,0-13.44-6.03-13.44-13.44c0-7.11,5.55-12.95,12.54-13.41v14.3
			C2606.06,405.39,2606.46,405.79,2606.96,405.79z M2625.76,406.36c-0.34,0.09-0.59,0.37-0.65,0.72c-0.19,1.16-0.5,2.31-0.9,3.4
			c-0.12,0.32-0.04,0.69,0.2,0.94l1.92,1.98c-0.46,0.97-1,1.9-1.6,2.79l-2.65-0.68c-0.34-0.08-0.69,0.03-0.91,0.3
			c-0.74,0.9-1.57,1.74-2.47,2.49c-0.27,0.22-0.38,0.58-0.3,0.91l0.68,2.67c-0.88,0.6-1.81,1.14-2.77,1.61l-1.96-1.92
			c-0.25-0.24-0.62-0.32-0.94-0.2c-1.08,0.41-2.22,0.71-3.38,0.91c-0.34,0.06-0.62,0.31-0.71,0.64l-0.73,2.61h-3.24l-0.73-2.61
			c-0.09-0.33-0.37-0.58-0.71-0.64c-1.16-0.2-2.3-0.5-3.38-0.91c-0.33-0.12-0.69-0.04-0.94,0.2l-1.96,1.92
			c-0.96-0.47-1.89-1.01-2.77-1.61l0.68-2.67c0.09-0.34-0.03-0.69-0.3-0.91c-0.9-0.75-1.73-1.59-2.47-2.49
			c-0.22-0.27-0.58-0.38-0.92-0.3l-2.65,0.68c-0.6-0.89-1.14-1.82-1.6-2.79l1.92-1.97c0.24-0.25,0.32-0.61,0.2-0.94
			c-0.41-1.09-0.71-2.23-0.9-3.4c-0.06-0.35-0.31-0.63-0.65-0.72l-2.7-0.74v-3.25l2.7-0.74c0.34-0.09,0.59-0.37,0.65-0.72
			c0.19-1.16,0.5-2.31,0.9-3.4c0.12-0.32,0.04-0.69-0.2-0.94l-1.92-1.98c0.46-0.97,1-1.9,1.6-2.79l2.65,0.68
			c0.34,0.08,0.69-0.03,0.91-0.3c0.74-0.9,1.57-1.74,2.47-2.49c0.27-0.22,0.38-0.58,0.3-0.91l-0.68-2.67
			c0.88-0.6,1.81-1.14,2.77-1.61l1.96,1.92c0.25,0.24,0.62,0.32,0.94,0.2c1.08-0.41,2.21-0.71,3.38-0.91
			c0.34-0.06,0.62-0.31,0.71-0.64l0.73-2.61h0.72v6.32c-7.98,0.47-14.33,7.09-14.33,15.18c0,8.4,6.83,15.23,15.23,15.23
			c7.73,0,14.19-5.84,15.09-13.44h5.8L2625.76,406.36z"/>
		<path class="st0" d="M2636.76,393.66l-2.81-0.77c-0.17-0.89-0.41-1.77-0.7-2.62l1.96-2.02c0.26-0.26,0.33-0.65,0.18-0.99
			c-0.65-1.46-1.46-2.86-2.39-4.15c-0.22-0.3-0.59-0.43-0.95-0.34l-2.71,0.7c-0.59-0.68-1.23-1.32-1.91-1.92l0.7-2.73
			c0.09-0.35-0.04-0.73-0.34-0.95c-1.29-0.94-2.68-1.75-4.13-2.4c-0.34-0.15-0.73-0.08-1,0.18l-2,1.97c-0.84-0.29-1.72-0.52-2.6-0.7
			l-0.76-2.72c-0.11-0.39-0.46-0.65-0.86-0.65h-2.3c-0.49,0-0.9,0.4-0.9,0.9v8.06v15.23c0,0.5,0.4,0.9,0.9,0.9h14.29h8.11
			c0.49,0,0.9-0.4,0.9-0.9v-3.21C2637.42,394.12,2637.15,393.77,2636.76,393.66z M2615.02,396.83v-13.41
			c6.99,0.46,12.54,6.3,12.54,13.41H2615.02z M2635.62,396.83h-6.27c0-8.1-6.35-14.72-14.33-15.18v-6.32h0.72l0.73,2.61
			c0.09,0.33,0.37,0.58,0.71,0.64c1.16,0.2,2.3,0.5,3.38,0.91c0.33,0.12,0.69,0.04,0.94-0.2l1.96-1.92
			c0.96,0.47,1.89,1.01,2.77,1.61l-0.68,2.67c-0.09,0.34,0.03,0.69,0.3,0.91c0.9,0.75,1.73,1.59,2.47,2.49
			c0.22,0.27,0.58,0.38,0.92,0.3l2.65-0.68c0.6,0.89,1.14,1.82,1.6,2.79l-1.92,1.97c-0.24,0.25-0.32,0.61-0.2,0.94
			c0.4,1.09,0.71,2.23,0.9,3.4c0.06,0.35,0.31,0.63,0.65,0.72l2.7,0.74V396.83z"/>
		<rect x="2606.06" y="407.58" class="st0" width="1.79" height="1.79"/>
		<rect x="2602.48" y="404" class="st0" width="1.79" height="1.79"/>
		<rect x="2616.81" y="393.25" class="st0" width="1.79" height="1.79"/>
	</g>
</g>
<g>
	<path class="st2" d="M2624.74,530.7l-0.37,0.23c-0.13-0.2-2.07-2.66-3.26-4.17c-0.09-0.14-0.15-0.21-0.24-0.28
		c-0.37-0.31-0.92-0.42-1.46-0.3c-0.13,0.03-11.96,3.14-19.65,5.49c-0.69,0.69-1.35,1.37-1.96,2.06c-2.41,2.66-4.03,4.78-4.84,5.86
		c3.4-0.87,11.46-2.95,15-3.86l2.15-0.56l-0.2,0.15l13.41-2.82c0.68-0.15,1.13-0.38,1.26-0.66c0.13-0.28-0.07-0.65-0.2-0.9
		L2624.74,530.7z"/>
	<path class="st2" d="M2626.53,540.54c0-0.02,0-0.04,0.01-0.06c0,0-0.01,0.01-0.01,0.01c-0.15,0.27-1.38,2.55-1.88,3.41
		c-4.43,7.66-14.46,15.7-15.14,16.24c-0.17,0.21-0.26,0.48-0.24,0.74c0.02,0.18,0.08,0.43,0.33,0.63l4.53,3.62
		c0.49,0.4,1.08,0.25,1.43-0.05c1.87-1.65,9.04-11.73,10.43-18.01L2626.53,540.54z"/>
	<path class="st2" d="M2609.78,543.74c4.56-3.68,9.73-7.85,12.63-10.15l-14.3,3.01c-0.03,0.01-0.07,0.02-0.1,0.03l-13.05,10.86
		L2609.78,543.74z"/>
	<path class="st2" d="M2623.89,543.47c0.35-0.61,1.09-1.96,1.53-2.77l-31.47,7.96c-0.19,0.05-0.27,0.12-0.3,0.15
		c0.03,0.01,0.09,0.08,0.25,0.17l5.23,3.44c0.82,0.47,1.18,0.62,2.44,0.36l18.16-3.6C2621.31,547.33,2622.78,545.38,2623.89,543.47"
		/>
	<path class="st2" d="M2597.14,533.15c6.16-6.81,16.53-14.25,16.63-14.32c0.43-0.37,0.5-0.97,0.15-1.45l-3.64-4.23
		c-0.18-0.23-0.4-0.36-0.64-0.38c-0.24-0.02-0.47,0.07-0.67,0.26c-0.11,0.09-8.27,6.41-14.21,15.14c-1.07,1.57-3.73,6-4.06,6.88
		c-0.21,0.57-0.23,3.86-0.14,4.37c0.03,0.42,0.17,0.53,0.28,0.58l0.12,0.01h0.01l0.09,0l0.22-0.03c0.07-0.02,0.16-0.05,0.25-0.09
		l0-0.02l0.14-0.08c0.08-0.09,0.28-0.36,0.49-0.63C2592.97,538.11,2594.64,535.91,2597.14,533.15"/>
</g>
<g>
	<path class="st1" d="M646.53,415.66l2.68-1.55c-4.14-7.15-11.83-11.59-20.08-11.59c-12.79,0-23.19,10.4-23.19,23.19
		c0,12.79,10.4,23.19,23.19,23.19c2.85,0,5.64-0.51,8.28-1.52l-1.11-2.89c-2.29,0.87-4.7,1.32-7.18,1.32
		c-11.08,0-20.1-9.02-20.1-20.1s9.02-20.1,20.1-20.1C636.28,405.61,642.95,409.46,646.53,415.66z"/>
	<path class="st1" d="M627.58,424.75l-8.42,4.21l1.38,2.77l9.28-4.64c0.52-0.26,0.85-0.8,0.85-1.38v-15.46h-3.09V424.75z"/>
</g>
<g>
	<path class="st1" d="M125.06,427.51v-19.49H95.11l-7.1,7.1v38.84h37.05v-4.67c5.11-1.04,8.89-5.61,8.89-10.89
		C133.96,433.04,130.13,428.54,125.06,427.51z M94.68,410.55v4.14h-4.14L94.68,410.55z M124.22,447.94l-0.64,0.09v4.45H89.49v-36.31
		h6.67v-6.67h27.42v17.81c-0.25-0.02-0.49-0.02-0.74-0.02c-0.25,0-0.5,0.02-0.74,0.04v-5.97h-4.45v7.22
		c-0.52,0.28-1.01,0.6-1.48,0.95v-14.1h-4.45v16.3h-1.48v-20.75h-4.45v20.75h-1.48v-11.86h-4.45v11.86h-1.48v-7.41h-4.45v7.41h-1.48
		v-14.08h-1.48v15.56h22.04c-0.82,1.55-1.29,3.31-1.29,5.19c0,5.81,4.53,10.68,10.32,11.09l0.1-1.48c-5.02-0.35-8.95-4.57-8.95-9.61
		c0-5.31,4.32-9.63,9.63-9.63c5.31,0,9.63,4.32,9.63,9.63C132.47,443.17,128.92,447.27,124.22,447.94z M120.62,427.51
		c-0.51,0.1-1,0.25-1.48,0.42v-5.09h1.48V427.51z M113.97,431.73h-0.76v-14.82h1.48v13.96
		C114.43,431.15,114.19,431.43,113.97,431.73z M108.76,431.73h-1.48v-19.27h1.48V431.73z M102.83,431.73h-1.48v-10.37h1.48V431.73z
		 M96.9,431.73h-1.48v-5.93h1.48V431.73z"/>
	
		<rect x="114.69" y="437.66" transform="matrix(0.7071 -0.7071 0.7071 0.7071 -274.0177 215.2644)" class="st1" width="16.3" height="1.48"/>
	<path class="st1" d="M125.81,439.14c-1.23,0-2.22,1-2.22,2.22c0,1.23,1,2.22,2.22,2.22s2.22-1,2.22-2.22
		C128.03,440.14,127.03,439.14,125.81,439.14z M125.81,442.11c-0.41,0-0.74-0.33-0.74-0.74c0-0.41,0.33-0.74,0.74-0.74
		c0.41,0,0.74,0.33,0.74,0.74C126.55,441.78,126.21,442.11,125.81,442.11z"/>
	<path class="st1" d="M119.88,437.66c1.23,0,2.22-1,2.22-2.22c0-1.23-1-2.22-2.22-2.22c-1.23,0-2.22,1-2.22,2.22
		C117.65,436.67,118.65,437.66,119.88,437.66z M119.88,434.7c0.41,0,0.74,0.33,0.74,0.74c0,0.41-0.33,0.74-0.74,0.74
		c-0.41,0-0.74-0.33-0.74-0.74C119.14,435.03,119.47,434.7,119.88,434.7z"/>
	<rect x="90.97" y="434.7" class="st1" width="1.48" height="1.48"/>
	<rect x="93.94" y="434.7" class="st1" width="16.3" height="1.48"/>
	<rect x="90.97" y="437.66" class="st1" width="19.27" height="1.48"/>
	<rect x="90.97" y="440.63" class="st1" width="19.27" height="1.48"/>
	<rect x="90.97" y="443.59" class="st1" width="20.01" height="1.48"/>
	<rect x="90.97" y="446.56" class="st1" width="22.97" height="1.48"/>
	<rect x="90.97" y="449.52" class="st1" width="20.01" height="1.48"/>
	<rect x="112.47" y="449.52" class="st1" width="1.48" height="1.48"/>
</g>
<g>
	<g>
		<path class="st0" d="M1169.57,160.1h-6.14v-2.45c0-1.35-1.1-2.45-2.45-2.45h-2.45c-1.35,0-2.45,1.1-2.45,2.45v2.45h-17.18v-2.45
			c0-1.35-1.1-2.45-2.45-2.45h-2.45c-1.35,0-2.45,1.1-2.45,2.45v2.45h-6.14c-0.68,0-1.23,0.55-1.23,1.23v35.6
			c0,0.68,0.55,1.23,1.23,1.23h44.19c0.68,0,1.23-0.55,1.23-1.23v-35.6C1170.8,160.65,1170.25,160.1,1169.57,160.1z M1158.53,157.65
			h2.45l0,3.68h-2.46V157.65z M1133.98,157.65h2.45l0,3.68h-2.46V157.65z M1131.86,162.56c0.43,0.73,1.21,1.23,2.11,1.23h2.45
			c0.9,0,1.69-0.5,2.11-1.23h17.87c0.43,0.73,1.21,1.23,2.11,1.23h2.45c0.9,0,1.69-0.5,2.11-1.23h5.25v3.68h-41.73v-3.68H1131.86z
			 M1126.61,195.7v-27h41.73v27H1126.61z"/>
		<path class="st0" d="M1137.66,171.15h-7.36c-0.68,0-1.23,0.55-1.23,1.23v7.36c0,0.68,0.55,1.23,1.23,1.23h7.36
			c0.68,0,1.23-0.55,1.23-1.23v-7.36C1138.89,171.7,1138.34,171.15,1137.66,171.15z M1136.43,178.51h-4.91v-4.91h4.91V178.51z"/>
		<path class="st0" d="M1137.66,183.42h-7.36c-0.68,0-1.23,0.55-1.23,1.23v7.36c0,0.68,0.55,1.23,1.23,1.23h7.36
			c0.68,0,1.23-0.55,1.23-1.23v-7.36C1138.89,183.97,1138.34,183.42,1137.66,183.42z M1136.43,190.79h-4.91v-4.91h4.91V190.79z"/>
		<path class="st0" d="M1151.16,171.15h-7.36c-0.68,0-1.23,0.55-1.23,1.23v7.36c0,0.68,0.55,1.23,1.23,1.23h7.36
			c0.68,0,1.23-0.55,1.23-1.23v-7.36C1152.39,171.7,1151.84,171.15,1151.16,171.15z M1149.93,178.51h-4.91v-4.91h4.91V178.51z"/>
		<path class="st0" d="M1151.16,183.42h-7.36c-0.68,0-1.23,0.55-1.23,1.23v7.36c0,0.68,0.55,1.23,1.23,1.23h7.36
			c0.68,0,1.23-0.55,1.23-1.23v-7.36C1152.39,183.97,1151.84,183.42,1151.16,183.42z M1149.93,190.79h-4.91v-4.91h4.91V190.79z"/>
		<path class="st0" d="M1164.66,171.15h-7.36c-0.68,0-1.23,0.55-1.23,1.23v7.36c0,0.68,0.55,1.23,1.23,1.23h7.36
			c0.68,0,1.23-0.55,1.23-1.23v-7.36C1165.89,171.7,1165.34,171.15,1164.66,171.15z M1163.44,178.51h-4.91v-4.91h4.91V178.51z"/>
		<path class="st0" d="M1164.66,183.42h-7.36c-0.68,0-1.23,0.55-1.23,1.23v7.36c0,0.68,0.55,1.23,1.23,1.23h7.36
			c0.68,0,1.23-0.55,1.23-1.23v-7.36C1165.89,183.97,1165.34,183.42,1164.66,183.42z M1163.44,190.79h-4.91v-4.91h4.91V190.79z"/>
	</g>
</g>
<g>
	<g>
		<path class="st0" d="M1120.86,316.69h37.64c0.51,0,0.92-0.41,0.92-0.92v-4.59c0-0.51-0.41-0.92-0.92-0.92h-1.84v-6.43h-1.84v6.43
			h-2.75v-6.43h-1.84v6.43h-2.75V302h-1.84v8.26h-2.75v-16.52h-21.11v-2.15l17.9-7.86l3.81,1.67l0.73-1.68l-4.18-1.84
			c-0.23-0.1-0.5-0.1-0.73,0l-18.82,8.26c-0.33,0.15-0.55,0.48-0.55,0.84v3.67c0,0.51,0.41,0.92,0.92,0.92h1.84v14.69h-1.84
			c-0.51,0-0.92,0.41-0.92,0.92v4.59C1119.94,316.28,1120.35,316.69,1120.86,316.69z M1141.05,310.26h-2.75v-14.69h2.75V310.26z
			 M1136.46,295.57v14.69h-2.75v-14.69H1136.46z M1129.12,310.26v-14.69h2.75v14.69H1129.12z M1124.53,295.57h2.75v14.69h-2.75
			V295.57z M1121.77,312.1h35.8v2.75h-35.8V312.1z"/>
		<path class="st0" d="M1136.46,288.69c0,1.77,1.44,3.21,3.21,3.21c1.77,0,3.21-1.44,3.21-3.21s-1.44-3.21-3.21-3.21
			C1137.9,285.47,1136.46,286.91,1136.46,288.69z M1141.05,288.69c0,0.76-0.62,1.38-1.38,1.38s-1.38-0.62-1.38-1.38
			s0.62-1.38,1.38-1.38l0,0C1140.44,287.31,1141.05,287.93,1141.05,288.69z"/>
		<path class="st0" d="M1174.1,267.11h-8.61l-2.5-5c-0.16-0.31-0.48-0.51-0.83-0.51h-11.93c-0.51,0-0.92,0.41-0.92,0.91
			c0,0.14,0.03,0.29,0.1,0.42l2.09,4.18h-5.56c-1.69,0-3.05,1.37-3.05,3.05c0,1.31,0.84,2.48,2.09,2.89l0.67,0.22v7.6
			c0,1.06,0.61,2.02,1.57,2.48l-1.89,3.07c-0.99,1.61-1.51,3.46-1.51,5.35c0,2.19,0.71,4.32,2.02,6.08
			c1.26,1.71,3.02,2.98,5.04,3.63c1.02,0.34,2.09,0.51,3.16,0.51h3.43c5.64-0.01,10.21-4.58,10.22-10.22v-0.73
			c0-2.02-0.59-3.99-1.71-5.66l-1.16-1.74h9.3c0.51,0,0.92-0.41,0.92-0.92v-14.69C1175.02,267.52,1174.61,267.11,1174.1,267.11z
			 M1163.44,267.11h-3.46l1.73-3.46L1163.44,267.11z M1151.72,263.44h8.05l-1.84,3.67h-4.37L1151.72,263.44z M1146.85,271.75
			l-1.29-0.43c-0.64-0.21-0.98-0.9-0.77-1.54c0.16-0.5,0.63-0.83,1.15-0.83h19.9v12.85h-17.44c-0.51,0-0.92-0.41-0.92-0.92v-8.26
			C1147.48,272.22,1147.23,271.87,1146.85,271.75L1146.85,271.75z M1164.43,286.4c0.92,1.38,1.41,2.99,1.41,4.65v0.73
			c-0.01,4.63-3.75,8.38-8.38,8.38h-3.43c-0.88,0-1.76-0.14-2.59-0.42c-1.66-0.54-3.1-1.58-4.14-2.98
			c-1.07-1.44-1.65-3.19-1.65-4.99c0-1.55,0.43-3.07,1.24-4.39l2.31-3.75h13.4L1164.43,286.4z M1173.18,281.8h-5.51v-12.85h5.51
			V281.8z"/>
		<rect x="1169.51" y="278.13" class="st0" width="1.84" height="1.84"/>
		<path class="st0" d="M1154.82,292.82h1.84c0.51,0,0.92,0.41,0.92,0.92c0,0.51-0.41,0.92-0.92,0.92h-3.67v1.84h1.84v1.84h1.84
			v-1.84c1.52,0,2.75-1.23,2.75-2.75s-1.23-2.75-2.75-2.75h-1.84c-0.51,0-0.92-0.41-0.92-0.92c0-0.51,0.41-0.92,0.92-0.92h3.67
			v-1.84h-1.84v-1.84h-1.84v1.84c-1.52,0-2.75,1.23-2.75,2.75C1152.07,291.58,1153.3,292.82,1154.82,292.82z"/>
	</g>
</g>
<g>
	<g>
		<path class="st0" d="M1166.29,411.33h-8.11h-13.39V397v-8.06c0-0.5-0.4-0.9-0.9-0.9h-2.3c-0.4,0-0.75,0.27-0.86,0.65l-0.76,2.72
			c-0.89,0.18-1.76,0.41-2.6,0.7l-2-1.97c-0.26-0.26-0.66-0.33-1-0.18c-1.45,0.65-2.84,1.46-4.13,2.4c-0.3,0.22-0.43,0.59-0.34,0.95
			l0.7,2.73c-0.68,0.6-1.32,1.24-1.91,1.92l-2.71-0.7c-0.36-0.09-0.73,0.04-0.95,0.34c-0.93,1.29-1.74,2.69-2.39,4.15
			c-0.15,0.33-0.08,0.73,0.18,0.99l1.96,2.02c-0.29,0.85-0.52,1.73-0.7,2.62l-2.81,0.77c-0.39,0.11-0.66,0.46-0.66,0.86v4.62
			c0,0.4,0.27,0.76,0.66,0.86l2.81,0.77c0.17,0.89,0.41,1.77,0.7,2.62l-1.96,2.02c-0.26,0.26-0.33,0.65-0.18,0.99
			c0.65,1.46,1.46,2.86,2.39,4.15c0.22,0.3,0.59,0.43,0.95,0.34l2.71-0.7c0.59,0.68,1.23,1.32,1.91,1.92l-0.7,2.73
			c-0.09,0.35,0.04,0.73,0.34,0.95c1.29,0.94,2.68,1.75,4.13,2.4c0.34,0.15,0.73,0.08,1-0.18l2-1.97c0.84,0.29,1.72,0.52,2.6,0.7
			l0.76,2.72c0.11,0.39,0.46,0.65,0.86,0.65h4.6c0.4,0,0.75-0.27,0.86-0.65l0.76-2.72c0.89-0.17,1.76-0.41,2.6-0.7l2,1.97
			c0.26,0.26,0.66,0.33,1,0.18c1.45-0.65,2.84-1.46,4.13-2.4c0.3-0.22,0.43-0.59,0.34-0.95l-0.7-2.73c0.68-0.6,1.32-1.24,1.91-1.92
			l2.71,0.7c0.36,0.09,0.73-0.04,0.95-0.34c0.93-1.3,1.74-2.69,2.39-4.15c0.15-0.33,0.08-0.73-0.18-0.99l-1.96-2.02
			c0.29-0.85,0.52-1.73,0.7-2.62l2.81-0.77c0.39-0.11,0.66-0.46,0.66-0.86v-1.41C1167.19,411.73,1166.79,411.33,1166.29,411.33z
			 M1143.9,413.13h13.3c-0.88,6.6-6.55,11.65-13.3,11.65c-7.41,0-13.44-6.03-13.44-13.44c0-7.11,5.55-12.95,12.54-13.41v14.3
			C1143,412.72,1143.4,413.13,1143.9,413.13z M1162.7,413.7c-0.34,0.09-0.59,0.37-0.65,0.72c-0.19,1.16-0.5,2.31-0.9,3.4
			c-0.12,0.32-0.04,0.69,0.2,0.94l1.92,1.98c-0.46,0.97-1,1.9-1.6,2.79l-2.65-0.68c-0.33-0.08-0.69,0.03-0.91,0.3
			c-0.74,0.9-1.57,1.74-2.47,2.49c-0.27,0.22-0.38,0.58-0.3,0.91l0.68,2.67c-0.88,0.6-1.81,1.14-2.77,1.61l-1.96-1.92
			c-0.25-0.24-0.62-0.32-0.94-0.2c-1.08,0.41-2.22,0.71-3.38,0.91c-0.34,0.06-0.62,0.31-0.71,0.64l-0.73,2.61h-3.24l-0.73-2.61
			c-0.09-0.33-0.37-0.58-0.71-0.64c-1.16-0.2-2.3-0.5-3.38-0.91c-0.33-0.12-0.69-0.04-0.94,0.2l-1.96,1.92
			c-0.96-0.47-1.89-1.01-2.77-1.61l0.68-2.67c0.09-0.34-0.03-0.69-0.3-0.91c-0.9-0.75-1.73-1.59-2.47-2.49
			c-0.22-0.27-0.58-0.38-0.92-0.3l-2.65,0.68c-0.6-0.89-1.14-1.82-1.6-2.79l1.92-1.97c0.24-0.25,0.32-0.61,0.2-0.94
			c-0.41-1.09-0.71-2.23-0.9-3.4c-0.06-0.35-0.31-0.63-0.65-0.72l-2.7-0.74v-3.25l2.7-0.74c0.34-0.09,0.59-0.37,0.65-0.72
			c0.19-1.16,0.5-2.31,0.9-3.4c0.12-0.32,0.04-0.69-0.2-0.94l-1.92-1.98c0.46-0.97,1-1.9,1.6-2.79l2.65,0.68
			c0.34,0.08,0.69-0.03,0.91-0.3c0.74-0.9,1.57-1.74,2.47-2.49c0.27-0.22,0.38-0.58,0.3-0.91l-0.68-2.67
			c0.88-0.6,1.81-1.14,2.77-1.61l1.96,1.92c0.25,0.24,0.62,0.32,0.94,0.2c1.08-0.41,2.21-0.71,3.38-0.91
			c0.34-0.06,0.62-0.31,0.71-0.64l0.73-2.61h0.72v6.32c-7.98,0.47-14.33,7.09-14.33,15.18c0,8.4,6.83,15.23,15.23,15.23
			c7.73,0,14.19-5.84,15.09-13.44h5.8L1162.7,413.7z"/>
		<path class="st0" d="M1173.7,400.99l-2.81-0.77c-0.17-0.89-0.41-1.77-0.7-2.62l1.96-2.02c0.26-0.26,0.33-0.65,0.18-0.99
			c-0.65-1.46-1.46-2.86-2.39-4.15c-0.22-0.3-0.59-0.43-0.95-0.34l-2.71,0.7c-0.59-0.68-1.23-1.32-1.91-1.92l0.7-2.73
			c0.09-0.35-0.04-0.73-0.34-0.95c-1.29-0.94-2.68-1.75-4.13-2.4c-0.34-0.15-0.73-0.08-1,0.18l-2,1.97c-0.84-0.29-1.72-0.52-2.6-0.7
			l-0.76-2.72c-0.11-0.39-0.46-0.65-0.86-0.65h-2.3c-0.49,0-0.9,0.4-0.9,0.9v8.06v15.23c0,0.5,0.4,0.9,0.9,0.9h14.29h8.11
			c0.49,0,0.9-0.4,0.9-0.9v-3.21C1174.36,401.45,1174.08,401.1,1173.7,400.99z M1151.96,404.17v-13.41
			c6.99,0.46,12.54,6.3,12.54,13.41H1151.96z M1172.56,404.17h-6.27c0-8.1-6.35-14.72-14.33-15.18v-6.32h0.72l0.73,2.61
			c0.09,0.33,0.37,0.58,0.71,0.64c1.16,0.2,2.3,0.5,3.38,0.91c0.33,0.12,0.69,0.04,0.94-0.2l1.96-1.92
			c0.96,0.47,1.89,1.01,2.77,1.61l-0.68,2.67c-0.09,0.34,0.03,0.69,0.3,0.91c0.9,0.75,1.73,1.59,2.47,2.49
			c0.22,0.27,0.58,0.38,0.92,0.3l2.65-0.68c0.6,0.89,1.14,1.82,1.6,2.79l-1.92,1.97c-0.24,0.25-0.32,0.61-0.2,0.94
			c0.41,1.09,0.71,2.23,0.9,3.4c0.06,0.35,0.31,0.63,0.65,0.72l2.7,0.74V404.17z"/>
		<rect x="1143" y="414.92" class="st0" width="1.79" height="1.79"/>
		<rect x="1139.42" y="411.33" class="st0" width="1.79" height="1.79"/>
		<rect x="1153.75" y="400.58" class="st0" width="1.79" height="1.79"/>
	</g>
</g>
<g>
	<path class="st2" d="M1161.68,548.2l-0.37,0.23c-0.13-0.2-2.07-2.66-3.26-4.17c-0.09-0.14-0.15-0.21-0.24-0.28
		c-0.37-0.31-0.92-0.42-1.46-0.3c-0.13,0.03-11.96,3.14-19.65,5.49c-0.69,0.69-1.35,1.37-1.96,2.06c-2.41,2.66-4.03,4.78-4.84,5.86
		c3.4-0.87,11.46-2.95,15-3.86l2.15-0.56l-0.2,0.15l13.41-2.82c0.68-0.15,1.13-0.38,1.26-0.66c0.13-0.28-0.07-0.65-0.2-0.9
		L1161.68,548.2z"/>
	<path class="st2" d="M1163.47,558.04c0-0.02,0-0.04,0.01-0.06c0,0-0.01,0.01-0.01,0.01c-0.15,0.27-1.38,2.55-1.88,3.41
		c-4.43,7.66-14.46,15.7-15.14,16.24c-0.17,0.21-0.26,0.48-0.24,0.74c0.02,0.18,0.08,0.43,0.33,0.63l4.53,3.62
		c0.49,0.4,1.08,0.25,1.43-0.05c1.87-1.65,9.04-11.73,10.43-18.01L1163.47,558.04z"/>
	<path class="st2" d="M1146.72,561.24c4.56-3.68,9.73-7.85,12.63-10.15l-14.3,3.01c-0.03,0.01-0.07,0.02-0.1,0.03l-13.05,10.86
		L1146.72,561.24z"/>
	<path class="st2" d="M1160.83,560.97c0.35-0.61,1.09-1.96,1.53-2.77l-31.47,7.96c-0.19,0.05-0.27,0.12-0.3,0.15
		c0.03,0.01,0.09,0.08,0.25,0.17l5.23,3.44c0.82,0.47,1.18,0.62,2.44,0.36l18.16-3.6C1158.25,564.82,1159.72,562.88,1160.83,560.97"
		/>
	<path class="st2" d="M1134.08,550.65c6.16-6.81,16.53-14.25,16.63-14.32c0.43-0.37,0.5-0.97,0.15-1.45l-3.64-4.23
		c-0.18-0.23-0.4-0.36-0.64-0.38c-0.24-0.02-0.47,0.07-0.67,0.26c-0.11,0.09-8.27,6.41-14.21,15.14c-1.07,1.57-3.73,6-4.06,6.88
		c-0.21,0.57-0.23,3.86-0.14,4.37c0.03,0.42,0.17,0.53,0.28,0.58l0.12,0.01h0.01l0.09,0l0.22-0.03c0.07-0.02,0.16-0.05,0.25-0.09
		l0-0.02l0.14-0.08c0.08-0.09,0.28-0.36,0.49-0.63C1129.91,555.61,1131.58,553.41,1134.08,550.65"/>
</g>
</svg>
