<?xml version="1.0" encoding="utf-8"?>
<!-- Generator: Adobe Illustrator 23.0.6, SVG Export Plug-In . SVG Version: 6.00 Build 0)  -->
<svg version="1.1" id="Capa_1" xmlns="http://www.w3.org/2000/svg" xmlns:xlink="http://www.w3.org/1999/xlink" x="0px" y="0px"
	 viewBox="0 0 200 200" style="enable-background:new 0 0 200 200;" xml:space="preserve">
<style type="text/css">
	.st0{fill:#0A5DA8;}
	.st1{fill:#FFFFFF;}
	.st2{fill:none;stroke:#0A5DA8;stroke-width:1.4636;stroke-linecap:round;stroke-linejoin:round;stroke-miterlimit:10;}
	.st3{fill:none;stroke:#0A5DA8;stroke-width:5.2862;stroke-linecap:round;stroke-linejoin:round;stroke-miterlimit:10;}
</style>
<g>
	<path class="st1" d="M177.7,58.8l11-6.3C171.7,23.2,140.2,5,106.4,5c-52.4,0-95,42.6-95,95s42.6,95,95,95c11.7,0,23.1-2.1,33.9-6.2
		l-4.5-11.8c-9.4,3.6-19.3,5.4-29.4,5.4c-45.4,0-82.3-37-82.3-82.3s37-82.3,82.3-82.3C135.7,17.7,163,33.4,177.7,58.8z"/>
	<path class="st1" d="M100,96.1l-34.5,17.2l5.7,11.3l38-19c2.1-1.1,3.5-3.3,3.5-5.7V36.7H100V96.1z"/>
</g>
</svg>
