<?xml version="1.0" encoding="utf-8"?>
<!-- Generator: Adobe Illustrator 23.0.6, SVG Export Plug-In . SVG Version: 6.00 Build 0)  -->
<svg version="1.1" id="Capa_1" xmlns="http://www.w3.org/2000/svg" xmlns:xlink="http://www.w3.org/1999/xlink" x="0px" y="0px"
	 viewBox="0 0 200 200" style="enable-background:new 0 0 200 200;" xml:space="preserve">
<style type="text/css">
	.st0{fill:#0A5DA8;}
	.st1{fill:#FFFFFF;}
	.st2{fill:none;stroke:#0A5DA8;stroke-width:1.4636;stroke-linecap:round;stroke-linejoin:round;stroke-miterlimit:10;}
	.st3{fill:none;stroke:#0A5DA8;stroke-width:5.2862;stroke-linecap:round;stroke-linejoin:round;stroke-miterlimit:10;}
</style>
<g>
	<g>
		<path class="st0" d="M189.9,32.5h-25v-10c0-5.5-4.5-10-10-10h-10c-5.5,0-10,4.5-10,10v10H65v-10c0-5.5-4.5-10-10-10H45
			c-5.5,0-10,4.5-10,10v10H10c-2.8,0-5,2.2-5,5v145c0,2.8,2.2,5,5,5h180c2.8,0,5-2.2,5-5v-145C194.9,34.7,192.6,32.5,189.9,32.5z
			 M144.9,22.5h10v15h-10L144.9,22.5L144.9,22.5z M44.9,22.5h10v15h-10L44.9,22.5L44.9,22.5z M36.3,42.5c1.8,3,4.9,5,8.6,5h10
			c3.7,0,6.9-2,8.6-5h72.8c1.8,3,4.9,5,8.6,5h10c3.7,0,6.9-2,8.6-5h21.4v15h-170v-15H36.3z M14.9,177.5v-110h170v110H14.9z"/>
		<path class="st0" d="M59.9,77.5h-30c-2.8,0-5,2.2-5,5v30c0,2.8,2.2,5,5,5h30c2.8,0,5-2.2,5-5v-30C64.9,79.7,62.7,77.5,59.9,77.5z
			 M54.9,107.5h-20v-20h20V107.5z"/>
		<path class="st0" d="M59.9,127.5h-30c-2.8,0-5,2.2-5,5v30c0,2.8,2.2,5,5,5h30c2.8,0,5-2.2,5-5v-30
			C64.9,129.7,62.7,127.5,59.9,127.5z M54.9,157.5h-20v-20h20V157.5z"/>
		<path class="st0" d="M114.9,77.5h-30c-2.8,0-5,2.2-5,5v30c0,2.8,2.2,5,5,5h30c2.8,0,5-2.2,5-5v-30
			C119.9,79.7,117.7,77.5,114.9,77.5z M109.9,107.5h-20v-20h20V107.5z"/>
		<path class="st0" d="M114.9,127.5h-30c-2.8,0-5,2.2-5,5v30c0,2.8,2.2,5,5,5h30c2.8,0,5-2.2,5-5v-30
			C119.9,129.7,117.7,127.5,114.9,127.5z M109.9,157.5h-20v-20h20V157.5z"/>
		<path class="st0" d="M169.9,77.5h-30c-2.8,0-5,2.2-5,5v30c0,2.8,2.2,5,5,5h30c2.8,0,5-2.2,5-5v-30
			C174.9,79.7,172.6,77.5,169.9,77.5z M164.9,107.5h-20v-20h20V107.5z"/>
		<path class="st0" d="M169.9,127.5h-30c-2.8,0-5,2.2-5,5v30c0,2.8,2.2,5,5,5h30c2.8,0,5-2.2,5-5v-30
			C174.9,129.7,172.6,127.5,169.9,127.5z M164.9,157.5h-20v-20h20V157.5z"/>
	</g>
</g>
</svg>
