<?xml version="1.0" encoding="utf-8"?>
<!-- Generator: Adobe Illustrator 23.0.6, SVG Export Plug-In . SVG Version: 6.00 Build 0)  -->
<svg version="1.1" id="Capa_1" xmlns="http://www.w3.org/2000/svg" xmlns:xlink="http://www.w3.org/1999/xlink" x="0px" y="0px"
	 viewBox="0 0 200 200" style="enable-background:new 0 0 200 200;" xml:space="preserve">
<style type="text/css">
	.st0{fill:#0A5DA8;}
	.st1{fill:#FFFFFF;}
	.st2{fill:none;stroke:#0A5DA8;stroke-width:1.4636;stroke-linecap:round;stroke-linejoin:round;stroke-miterlimit:10;}
	.st3{fill:none;stroke:#0A5DA8;stroke-width:5.2862;stroke-linecap:round;stroke-linejoin:round;stroke-miterlimit:10;}
</style>
<g>
	<g>
		<path class="st0" d="M8.2,195H138c1.8,0,3.2-1.4,3.2-3.2V176c0-1.8-1.4-3.2-3.2-3.2h-6.3v-22.2h-6.3v22.2h-9.5v-22.2h-6.3v22.2
			H100v-28.5h-6.3v28.5h-9.5v-57H11.3v-7.4l61.7-27.1l13.1,5.8l2.5-5.8l-14.4-6.3c-0.8-0.3-1.7-0.3-2.5,0L6.9,103.4
			c-1.1,0.5-1.9,1.7-1.9,2.9V119c0,1.8,1.4,3.2,3.2,3.2h6.3v50.7H8.2c-1.8,0-3.2,1.4-3.2,3.2v15.8C5,193.6,6.4,195,8.2,195z
			 M77.8,172.8h-9.5v-50.7h9.5V172.8z M62,122.2v50.7h-9.5v-50.7H62z M36.6,172.8v-50.7h9.5v50.7H36.6z M20.8,122.2h9.5v50.7h-9.5
			V122.2z M11.3,179.2h123.5v9.5H11.3V179.2z"/>
		<path class="st0" d="M62,98.4c0,6.1,5,11.1,11.1,11.1c6.1,0,11.1-5,11.1-11.1s-5-11.1-11.1-11.1C66.9,87.3,62,92.3,62,98.4z
			 M77.8,98.4c0,2.6-2.1,4.8-4.8,4.8c-2.6,0-4.8-2.1-4.8-4.8c0-2.6,2.1-4.8,4.8-4.8l0,0C75.7,93.7,77.8,95.8,77.8,98.4z"/>
		<path class="st0" d="M191.8,24h-29.7l-8.6-17.2c-0.6-1.1-1.7-1.8-2.9-1.8h-41.1c-1.8,0-3.2,1.4-3.2,3.1c0,0.5,0.1,1,0.3,1.4
			l7.2,14.4H94.7c-5.8,0-10.5,4.7-10.5,10.5c0,4.5,2.9,8.6,7.2,10l2.3,0.8v26.2c0,3.7,2.1,7,5.4,8.6l-6.5,10.6
			c-3.4,5.6-5.2,11.9-5.2,18.5c0,7.6,2.4,14.9,7,21c4.3,5.9,10.4,10.3,17.4,12.5c3.5,1.2,7.2,1.8,10.9,1.8h11.8
			c19.5,0,35.2-15.8,35.2-35.2v-2.5c0-7-2-13.8-5.9-19.5l-4-6h32.1c1.8,0,3.2-1.4,3.2-3.2V27.2C194.9,25.4,193.5,24,191.8,24z
			 M155,24h-11.9l6-11.9L155,24z M114.6,11.3h27.8L136,24h-15.1L114.6,11.3z M97.8,40l-4.4-1.5c-2.2-0.7-3.4-3.1-2.7-5.3
			c0.6-1.7,2.2-2.9,4-2.9h68.6v44.3h-60.1c-1.8,0-3.2-1.4-3.2-3.2V43C100,41.6,99.1,40.4,97.8,40L97.8,40z M158.4,90.5
			c3.2,4.8,4.9,10.3,4.9,16v2.5c0,16-12.9,28.9-28.9,28.9h-11.8c-3,0-6.1-0.5-8.9-1.4c-5.7-1.9-10.7-5.4-14.3-10.3
			c-3.7-5-5.7-11-5.7-17.2c0-5.3,1.5-10.6,4.3-15.1l8-12.9h46.2L158.4,90.5z M188.6,74.7h-19V30.3h19V74.7z"/>
		<rect x="175.9" y="62" class="st0" width="6.3" height="6.3"/>
		<path class="st0" d="M125.3,112.7h6.3c1.8,0,3.2,1.4,3.2,3.2c0,1.8-1.4,3.2-3.2,3.2H119v6.3h6.3v6.3h6.3v-6.3
			c5.2,0,9.5-4.2,9.5-9.5c0-5.2-4.2-9.5-9.5-9.5h-6.3c-1.8,0-3.2-1.4-3.2-3.2s1.4-3.2,3.2-3.2H138v-6.3h-6.3v-6.3h-6.3v6.3
			c-5.2,0-9.5,4.2-9.5,9.5C115.8,108.4,120,112.7,125.3,112.7z"/>
	</g>
</g>
</svg>
