<?xml version="1.0" encoding="utf-8"?>
<!-- Generator: Adobe Illustrator 23.0.6, SVG Export Plug-In . SVG Version: 6.00 Build 0)  -->
<svg version="1.1" id="Capa_1" xmlns="http://www.w3.org/2000/svg" xmlns:xlink="http://www.w3.org/1999/xlink" x="0px" y="0px"
	 viewBox="0 0 200 200" style="enable-background:new 0 0 200 200;" xml:space="preserve">
<style type="text/css">
	.st0{fill:#0A5DA8;}
	.st1{fill:#FFFFFF;}
	.st2{fill:none;stroke:#0A5DA8;stroke-width:1.4636;stroke-linecap:round;stroke-linejoin:round;stroke-miterlimit:10;}
	.st3{fill:none;stroke:#0A5DA8;stroke-width:5.2862;stroke-linecap:round;stroke-linejoin:round;stroke-miterlimit:10;}
</style>
<g>
	<path class="st3" d="M157.2,70.6c-0.5-0.7-7.5-9.6-11.8-15.1c-0.3-0.5-0.5-0.8-0.9-1c-1.3-1.1-3.3-1.5-5.3-1.1
		c-0.5,0.1-43.2,11.3-71,19.8c-2.5,2.5-4.9,4.9-7.1,7.4c-8.7,9.6-14.6,17.3-17.5,21.2C56.1,98.7,85.2,91.2,98,87.9l7.8-2l-0.7,0.5
		l48.4-10.2c2.5-0.5,4.1-1.4,4.6-2.4C158.5,72.9,157.7,71.5,157.2,70.6"/>
	<path class="st3" d="M165,106.7c0-0.1,0-0.1,0-0.2l0,0c-0.5,1-5,7.8-6.8,10.9c-16,27.7-52.2,56.7-54.7,58.7
		c-0.6,0.8-0.9,1.7-0.9,2.7c0.1,0.7,0.3,1.6,1.2,2.3l16.4,13.1c1.8,1.4,3.9,0.9,5.2-0.2c6.8-6,32.7-42.4,37.7-65L165,106.7z"/>
	<path class="st3" d="M104.5,116.9c16.5-13.3,35.1-28.4,45.6-36.7L98.5,91.1c-0.1,0-0.3,0.1-0.4,0.1L51,130.4L104.5,116.9z"/>
	<path class="st3" d="M155.5,115.9c1.3-2.2,3.9-7.1,5.5-10L47.4,134.6c-0.7,0.2-1,0.4-1.1,0.5c0.1,0,0.3,0.3,0.9,0.6l18.9,12.4
		c3,1.7,4.3,2.2,8.8,1.3l65.6-13C146.2,129.8,151.5,122.8,155.5,115.9"/>
	<path class="st3" d="M58.9,78.6c22.2-24.6,59.7-51.5,60.1-51.7c1.6-1.3,1.8-3.5,0.5-5.2L106.3,6.4c-0.7-0.8-1.4-1.3-2.3-1.4
		c-0.9-0.1-1.7,0.3-2.4,0.9c-0.4,0.3-29.9,23.2-51.3,54.7c-3.9,5.7-13.5,21.7-14.7,24.8c-0.8,2.1-0.8,13.9-0.5,15.8
		c0.1,1.5,0.6,1.9,1,2.1l0.4,0h0h0.3l0.8-0.1c0.3-0.1,0.6-0.2,0.9-0.3v-0.1l0.5-0.3c0.3-0.3,1-1.3,1.8-2.3
		C43.8,96.5,49.9,88.6,58.9,78.6"/>
</g>
</svg>
