<?xml version="1.0" encoding="utf-8"?>
<!-- Generator: Adobe Illustrator 23.0.6, SVG Export Plug-In . SVG Version: 6.00 Build 0)  -->
<svg version="1.1" id="Capa_1" xmlns="http://www.w3.org/2000/svg" xmlns:xlink="http://www.w3.org/1999/xlink" x="0px" y="0px"
	 viewBox="0 0 200 200" style="enable-background:new 0 0 200 200;" xml:space="preserve">
<style type="text/css">
	.st0{fill:#0A5DA8;}
	.st1{fill:#FFFFFF;}
	.st2{fill:none;stroke:#0A5DA8;stroke-width:1.4636;stroke-linecap:round;stroke-linejoin:round;stroke-miterlimit:10;}
	.st3{fill:none;stroke:#0A5DA8;stroke-width:5.2862;stroke-linecap:round;stroke-linejoin:round;stroke-miterlimit:10;}
</style>
<g>
	<g>
		<path class="st0" d="M166.5,112.7h-28.7H90.4V62V33.5c0-1.8-1.4-3.2-3.2-3.2h-8.1c-1.4,0-2.7,1-3,2.3l-2.7,9.6
			c-3.1,0.6-6.2,1.5-9.2,2.5l-7.1-7c-0.9-0.9-2.3-1.2-3.5-0.6c-5.1,2.3-10,5.2-14.6,8.5c-1.1,0.8-1.5,2.1-1.2,3.4l2.5,9.7
			c-2.4,2.1-4.7,4.4-6.8,6.8l-9.6-2.5c-1.3-0.3-2.6,0.1-3.4,1.2c-3.3,4.6-6.2,9.5-8.5,14.7c-0.5,1.2-0.3,2.6,0.6,3.5l6.9,7.1
			c-1,3-1.8,6.1-2.5,9.3l-9.9,2.7c-1.4,0.4-2.3,1.6-2.3,3v16.3c0,1.4,1,2.7,2.3,3l9.9,2.7c0.6,3.1,1.5,6.3,2.5,9.3l-6.9,7.1
			c-0.9,0.9-1.2,2.3-0.6,3.5c2.3,5.2,5.2,10.1,8.5,14.7c0.8,1.1,2.1,1.5,3.4,1.2l9.6-2.5c2.1,2.4,4.4,4.7,6.8,6.8l-2.5,9.7
			c-0.3,1.2,0.1,2.6,1.2,3.4c4.6,3.3,9.5,6.2,14.6,8.5c1.2,0.5,2.6,0.3,3.5-0.6l7.1-7c3,1,6.1,1.8,9.2,2.5l2.7,9.6
			c0.4,1.4,1.6,2.3,3,2.3h16.3c1.4,0,2.7-1,3-2.3l2.7-9.6c3.1-0.6,6.2-1.5,9.2-2.5l7.1,7c0.9,0.9,2.3,1.2,3.5,0.6
			c5.1-2.3,10-5.2,14.6-8.5c1.1-0.8,1.5-2.1,1.2-3.4l-2.5-9.7c2.4-2.1,4.7-4.4,6.8-6.8l9.6,2.5c1.3,0.3,2.6-0.1,3.4-1.2
			c3.3-4.6,6.2-9.5,8.5-14.7c0.5-1.2,0.3-2.6-0.6-3.5l-6.9-7.1c1-3,1.8-6.1,2.5-9.3l9.9-2.7c1.4-0.4,2.3-1.6,2.3-3v-5
			C169.7,114.1,168.2,112.7,166.5,112.7z M87.3,119.1h47c-3.1,23.3-23.2,41.2-47,41.2c-26.2,0-47.5-21.3-47.5-47.5
			c0-25.1,19.6-45.8,44.4-47.4v50.6C84.1,117.6,85.5,119.1,87.3,119.1z M153.8,121.1c-1.2,0.3-2.1,1.3-2.3,2.5
			c-0.7,4.1-1.8,8.2-3.2,12c-0.4,1.1-0.1,2.4,0.7,3.3l6.8,7c-1.6,3.4-3.5,6.7-5.7,9.9l-9.4-2.4c-1.2-0.3-2.4,0.1-3.2,1.1
			c-2.6,3.2-5.6,6.2-8.7,8.8c-1,0.8-1.3,2.1-1.1,3.2l2.4,9.4c-3.1,2.1-6.4,4-9.8,5.7l-6.9-6.8c-0.9-0.8-2.2-1.1-3.3-0.7
			c-3.8,1.5-7.9,2.5-12,3.2c-1.2,0.2-2.2,1.1-2.5,2.3l-2.6,9.2H81.6l-2.6-9.2c-0.3-1.2-1.3-2.1-2.5-2.3c-4.1-0.7-8.1-1.8-12-3.2
			c-1.2-0.4-2.4-0.1-3.3,0.7l-6.9,6.8c-3.4-1.7-6.7-3.6-9.8-5.7l2.4-9.4c0.3-1.2-0.1-2.4-1.1-3.2c-3.2-2.7-6.1-5.6-8.7-8.8
			c-0.8-1-2.1-1.3-3.3-1.1l-9.4,2.4c-2.1-3.1-4-6.4-5.7-9.9l6.8-7c0.8-0.9,1.1-2.2,0.7-3.3c-1.5-3.9-2.5-7.9-3.2-12
			c-0.2-1.2-1.1-2.2-2.3-2.5l-9.5-2.6V107l9.5-2.6c1.2-0.3,2.1-1.3,2.3-2.5c0.7-4.1,1.8-8.2,3.2-12c0.4-1.1,0.1-2.4-0.7-3.3l-6.8-7
			c1.6-3.4,3.5-6.7,5.7-9.9l9.4,2.4c1.2,0.3,2.4-0.1,3.2-1.1c2.6-3.2,5.6-6.2,8.7-8.8c1-0.8,1.3-2.1,1.1-3.2l-2.4-9.4
			c3.1-2.1,6.4-4,9.8-5.7l6.9,6.8c0.9,0.8,2.2,1.1,3.3,0.7c3.8-1.5,7.8-2.5,12-3.2c1.2-0.2,2.2-1.1,2.5-2.3l2.6-9.2h2.5v22.4
			C55.9,60.6,33.4,84,33.4,112.6c0,29.7,24.2,53.9,53.9,53.9c27.3,0,50.2-20.7,53.4-47.5h20.5L153.8,121.1z"/>
		<path class="st0" d="M192.7,76.1l-9.9-2.7c-0.6-3.1-1.5-6.3-2.5-9.3l6.9-7.1c0.9-0.9,1.2-2.3,0.6-3.5c-2.3-5.2-5.2-10.1-8.5-14.7
			c-0.8-1.1-2.1-1.5-3.4-1.2l-9.6,2.5c-2.1-2.4-4.4-4.7-6.8-6.8l2.5-9.7c0.3-1.2-0.1-2.6-1.2-3.4c-4.6-3.3-9.5-6.2-14.6-8.5
			c-1.2-0.5-2.6-0.3-3.5,0.6l-7.1,7c-3-1-6.1-1.8-9.2-2.5l-2.7-9.6c-0.4-1.4-1.6-2.3-3-2.3h-8.1c-1.7,0-3.2,1.4-3.2,3.2v28.5v53.9
			c0,1.8,1.4,3.2,3.2,3.2h50.5h28.7c1.7,0,3.2-1.4,3.2-3.2V79.2C195,77.8,194,76.5,192.7,76.1z M115.8,87.4V39.9
			c24.7,1.6,44.4,22.3,44.4,47.4H115.8z M188.7,87.4h-22.2c0-28.6-22.5-52.1-50.7-53.7V11.3h2.5l2.6,9.2c0.3,1.2,1.3,2.1,2.5,2.3
			c4.1,0.7,8.1,1.8,12,3.2c1.2,0.4,2.4,0.1,3.3-0.7l6.9-6.8c3.4,1.7,6.7,3.6,9.8,5.7l-2.4,9.4c-0.3,1.2,0.1,2.4,1.1,3.2
			c3.2,2.7,6.1,5.6,8.7,8.8c0.8,1,2.1,1.3,3.3,1.1l9.4-2.4c2.1,3.1,4,6.4,5.7,9.9l-6.8,7c-0.8,0.9-1.1,2.2-0.7,3.3
			c1.5,3.9,2.5,7.9,3.2,12c0.2,1.2,1.1,2.2,2.3,2.5l9.5,2.6L188.7,87.4L188.7,87.4z"/>
		<rect x="84.1" y="125.4" class="st0" width="6.3" height="6.3"/>
		<rect x="71.4" y="112.7" class="st0" width="6.3" height="6.3"/>
		<rect x="122.1" y="74.7" class="st0" width="6.3" height="6.3"/>
	</g>
</g>
</svg>
