<svg id="Capa_1" data-name="Capa 1" xmlns="http://www.w3.org/2000/svg" xmlns:xlink="http://www.w3.org/1999/xlink" viewBox="0 0 192.36 192.36"><defs><style>.cls-1{fill:url(#Degradado_sin_nombre_5);}.cls-2{fill:url(#Degradado_sin_nombre_8);}</style><radialGradient id="Degradado_sin_nombre_5" cx="96.18" cy="96.18" r="96.18" gradientUnits="userSpaceOnUse"><stop offset="0.14" stop-color="#0a5da8"/><stop offset="1" stop-color="#203768"/></radialGradient><linearGradient id="Degradado_sin_nombre_8" x1="9.26" y1="99.64" x2="191.65" y2="99.64" gradientUnits="userSpaceOnUse"><stop offset="0" stop-color="#f9f9f9"/><stop offset="0.04" stop-color="#f2f7f8"/><stop offset="0.1" stop-color="#def0f5"/><stop offset="0.18" stop-color="#bde4f0"/><stop offset="0.26" stop-color="#90d5ea"/><stop offset="0.34" stop-color="#62c5e3"/><stop offset="0.35" stop-color="#60c2e1"/><stop offset="0.45" stop-color="#4a9ccd"/><stop offset="0.54" stop-color="#3a80bd"/><stop offset="0.62" stop-color="#306fb4"/><stop offset="0.68" stop-color="#2d69b1"/><stop offset="0.73" stop-color="#316cb2"/><stop offset="0.77" stop-color="#3c73b6"/><stop offset="0.82" stop-color="#4e80bc"/><stop offset="0.86" stop-color="#6892c5"/><stop offset="0.9" stop-color="#8aaad0"/><stop offset="0.95" stop-color="#b4c7de"/><stop offset="0.99" stop-color="#e4e8ee"/><stop offset="1" stop-color="#f3f3f3"/></linearGradient></defs><title>ícono mundo</title><circle class="cls-1" cx="96.18" cy="96.18" r="96.18"/><path class="cls-2" d="M100.45,8.44a91.2,91.2,0,1,0,91.2,91.2A91.2,91.2,0,0,0,100.45,8.44ZM161.83,161A86.79,86.79,0,1,1,39.08,38.27c.39-.39.79-.75,1.18-1.13a10.56,10.56,0,0,1-1.18,2.68c-1.29,1.92-3.45,2.69-4.8,4.5a18.34,18.34,0,0,0-2.68,6c-.49,2-.19,4.43-.89,6.42-.9,2.53-2.52,4-2.22,7,3.53,1.05,2-5.22,5-5.54.94,2.34.32,6.69.06,9.24-.37,3.5-1.06,4.37,1,7.38,1.66,2.39,2.2,4,5.41,4.36,2.94.34,4.17,1.67,5.39,4.51,2.27.48,3.64.86,3.94,3.37,1,.55,2.83,2.32,3.87,2.59,1.5.4,4-1.75,5.44-.09,2.37,2.75-3,10-4,12.44-1.4,3.64-1.61,9,1.84,11.6,1.77,1.35,3.65,2,4.23,4.42.53,2.26.12,4.13,1.11,6.26,1.56,3.31,5.12,4.41,7.66,6.95,3.32,3.33,3.09,7.66,3.09,12.37,0,4.94,1.88,8.69,2.53,13.21s2.05,9,3,13.49c.73,3.39,3.66,8.51,7.89,7.82.3-1.6-1.37-2.86-1.58-4.45s.22-3-.07-4.5c-.57-3.06-.54-4.86,1.49-7.52.72-.94,1.7-1.72,2.45-2.66,1.43-1.83.33-1.29.27-3.29-.08-2.5.68-1.27,2.19-2A12.29,12.29,0,0,0,93,151.34c1.32-1.37,3.34-3,4.36-4.63,1.15-1.83,1-4.38,2.18-6.26,1.34-2.17,3.25-2.17,5.13-3.58,2.44-1.83,1.43-3.75,1.88-6.26a28.5,28.5,0,0,1,5.28-12.15c3.33-4.21,4.76-7.78.71-11.81-2-2-3-1.47-5.7-2.16-2-.53-3.84-2-5.9-2.26-1.23-.15-2,.29-3.09,0s-.92-.92-2-.91c-1.65,0-4,3.46-5.36,1.26-.77-1.22,1.59-4.61,1.48-6.26-.13-2-.88-5.3-2.86-6.4-.75-.42-2.41-.48-3.32-.83a17.92,17.92,0,0,1-3.1-1.7c-1.26-.81-3.69-2.22-4.25-3.66-1.55-.07-2.6-.92-4.17-.9-1.41,0-2.35.67-3.87.5-1.34-.15-2.78-1.2-4.22-1-1,.13-2.38,1.38-3.21,1.85a22.87,22.87,0,0,1-7,2.59c-3.76.7-4.43-.74-4.21-4.22l-.57-1.12c1.4-3.89-1.12-4.16-3.89-5.1-.38-2.77,3-4.74,1.6-7.78-2.88-.15-6,8-8.45,4.45-1.61-2.32.83-8.79,2.24-10.75s6.61-5.54,9-5.85a3.94,3.94,0,0,1,4.29,2.26c.8,1.82-.24,3.53,0,5.59,2.43-.56,1.8-3.65,1.69-5.31-.17-2.76,1.28-2.55,2.69-4.55,1.28-1.81,1.48-3.88,3.08-5.64,1.25-1.37,2.72-2.81,4.08-4.07,1.57-1.44,3.33-1.31,4.93-2.36,2.44-1.62-.79-4.61,2.8-4.38,1.28.08.65.87,2.34.49a25.5,25.5,0,0,0,2.79-1.13c3.43-1.39,1-1.77-.57-3.58-2-2.3.83-1.9,2.89-2.25,1.51-.25,1.19-.75,2.52.14,1.18.79.49,1.83,2.19,1.77,3.24-.11,1-3.36.27-4.44-1.23-1.84-1.55-3.13-4.16-3.2A4.12,4.12,0,0,0,83.49,23c-2.2.29-2.58-1.31-4.24-1.93-2.8-1.07-2.36,1.23-3.5,2.8s-3.44,1.33-4.31,3.3,0,3.62-3.33,3.06a11,11,0,0,0,.21-4.13,15,15,0,0,1-2.72-.66c0-3.29,3.65-3.57,6.13-3.88,2.78-.35,3.69-3.18,6.17-3.66,2.31-.44,4,3.31,6.83,1.14,1.63-1.24.88-2,.28-3.17a16.56,16.56,0,0,0-1.2-1.33.31.31,0,0,1,0-.1c2.21-.43,4.45-.76,6.7-1A23.3,23.3,0,0,0,92.31,17c.37.62,1.06,1,1.36,1.73s-.46,1.76.53,2.28c1.53.82,6-4.49,7-5.36,1.36-1.09,2.2-1.69,1.88-2.75A87,87,0,0,1,124,16.08c.53.67,1.08,1.36,1.63,2.13,1.19,1.64,1.93,3.12,4.07,3.85,1.23.43,5.18.35,3.54,3.17-1.51,2.61-3.19-.81-3.95-1.63-1.06-1.13-4.19-2.39-4.09.21.14,3.88,8.88,3.26,7,7.52,1,.62,3.11,1.65,2.77,3.17-.42,1.89-2.87.69-2.82,3.09a5.57,5.57,0,0,0,7.25,5c3.69-1.31.91-6.43,5.14-7,1.66-.2,2.64.28,4.13,1.46,1.22,1,2,3.15,3.68,3,.17-1-.61-1.78-.75-2.74a10.87,10.87,0,0,1,4.65,3.07c1.13,1.71,1,4.17,3.76,2-.41-.34-.62-1.09-.84-1.36a7.68,7.68,0,0,1,7.49,4.51c3.38,6.83-4.91,1.41-5.32,5-2.05-.65-3-2.3-4.73-3.28-.84-.46-2.39-.21-3-.69-.88-.65-.67-1.83-1.45-2.47-3.06-2.51-10.06,1.55-12.88,3.17-.76.44-1.57.49-2.1,1.31-.89,1.42.37,1.78.09,3.11-.4,1.89-2.87,2.76-3.61,4.27-1.79,3.63,1.84,8.84,1.35,12.87-.27,2.24-2.69,4.67-1.76,6.54.4.81,1.79,1.5,2.33,2.45a27.15,27.15,0,0,0,1.32,2.89,112.7,112.7,0,0,0,7.46,8.85,5.31,5.31,0,0,0,5.33,1.54,29.44,29.44,0,0,0,5.9-1.68c2.12-1,2.4-2.45,4.63-1.48,1.78.77,3.34,3,5.41,1.16,1.71,1.66-.19,4.57-.57,6.43-.49,2.38.46,4.45,1.92,6.48,1.76,2.43,2.17,2.86,1.81,6.11a72.34,72.34,0,0,1-1.46,7.35c-.52,2.4-2,4.22-2,6.76.07,2.34,1.09,4.23.78,6.74a53.57,53.57,0,0,1-1,7c-.59,2.22-2.16,4.19-2.82,6.47a7.55,7.55,0,0,0,1.06,6.74c1.58,1.85,3.14.79,5-.61,3.65-2.77,5.31-7.46,7.73-11.19s5-7.29,6.61-11.24c.35-.84.77-1.67,1.2-2.49A86.32,86.32,0,0,1,161.83,161Z" transform="translate(-4.27 -3.45)"/></svg>