<?xml version="1.0" encoding="utf-8"?>
<!-- Generator: Adobe Illustrator 24.0.1, SVG Export Plug-In . SVG Version: 6.00 Build 0)  -->
<svg version="1.1" id="Layer_1" xmlns="http://www.w3.org/2000/svg" xmlns:xlink="http://www.w3.org/1999/xlink" x="0px" y="0px"
	 viewBox="0 0 40 40" style="enable-background:new 0 0 40 40;" xml:space="preserve">
<style type="text/css">
	.st0{fill:#FFFFFF;}
</style>
<g>
	<path class="st0" d="M20,10.8c5.1,0,9.2,4.1,9.2,9.2s-4.1,9.2-9.2,9.2s-9.2-4.1-9.2-9.2S14.9,10.8,20,10.8z M20,25.8V14.2
		c-3.2,0-5.8,2.6-5.8,5.8C14.2,23.2,16.8,25.8,20,25.8z M20,31.6c-1.3,0-2.3,1-2.3,2.3v2.3c0,1.3,1,2.3,2.3,2.3c1.3,0,2.3-1,2.3-2.3
		v-2.3C22.3,32.6,21.3,31.6,20,31.6z M20,8.4c1.3,0,2.3-1,2.3-2.3V3.8c0-1.3-1-2.3-2.3-2.3c-1.3,0-2.3,1-2.3,2.3v2.3
		C17.7,7.4,18.7,8.4,20,8.4z M3.8,17.7c-1.3,0-2.3,1-2.3,2.3c0,1.3,1,2.3,2.3,2.3h2.3c1.3,0,2.3-1,2.3-2.3c0-1.3-1-2.3-2.3-2.3H3.8z
		 M31.6,20c0,1.3,1,2.3,2.3,2.3h2.3c1.3,0,2.3-1,2.3-2.3c0-1.3-1-2.3-2.3-2.3h-2.3C32.6,17.7,31.6,18.7,31.6,20z M8.6,28.2l-1.6,1.6
		c-0.9,0.9-0.9,2.4,0,3.3c0.9,0.9,2.4,0.9,3.3,0l1.6-1.6c0.9-0.9,0.9-2.4,0-3.3C10.9,27.3,9.5,27.3,8.6,28.2z M31.4,11.8l1.6-1.6
		c0.9-0.9,0.9-2.4,0-3.3c-0.9-0.9-2.4-0.9-3.3,0l-1.6,1.6c-0.9,0.9-0.9,2.4,0,3.3C29.1,12.7,30.5,12.7,31.4,11.8z M8.6,11.8
		c0.9,0.9,2.4,0.9,3.3,0c0.9-0.9,0.9-2.4,0-3.3l-1.6-1.6C9.3,6,7.8,6,6.9,6.9C6,7.8,6,9.3,6.9,10.2L8.6,11.8z M31.4,28.2
		c-0.9-0.9-2.4-0.9-3.3,0c-0.9,0.9-0.9,2.4,0,3.3l1.6,1.6c0.9,0.9,2.4,0.9,3.3,0c0.9-0.9,0.9-2.4,0-3.3L31.4,28.2z"/>
</g>
</svg>
